# Blender v2.79 (sub 0) OBJ File: ''
# www.blender.org
mtllib BuildingB8.mtl
o Box394
v -0.173799 0.000000 0.162230
v 0.207201 0.000000 0.162230
v -0.173799 0.000000 -0.218770
v 0.207201 0.000000 -0.218770
v -0.173799 0.101600 0.162230
v 0.207201 0.101600 0.162230
v 0.207201 0.101600 -0.218770
v -0.173799 0.101600 -0.218770
v -0.173799 0.203200 0.162230
v 0.207201 0.203200 0.162230
v 0.207201 0.203200 -0.218770
v -0.173799 0.203200 -0.218770
v -0.173799 0.349056 0.162230
v 0.207201 0.349056 0.162230
v 0.207201 0.349056 -0.218770
v -0.173799 0.349056 -0.218770
v -0.148399 0.135332 0.162230
v 0.181801 0.135332 0.162230
v 0.181801 0.186132 0.162230
v -0.148399 0.186132 0.162230
v -0.148399 0.236932 0.162230
v 0.181801 0.236932 0.162230
v 0.181801 0.287732 0.162230
v -0.148399 0.287732 0.162230
v 0.207201 0.135332 0.136830
v 0.207201 0.135332 -0.193370
v 0.207201 0.186132 -0.193370
v 0.207201 0.186132 0.136830
v 0.207201 0.236932 0.136830
v 0.207201 0.236932 -0.193370
v 0.207201 0.287732 -0.193370
v 0.207201 0.287732 0.136830
v 0.181801 0.135332 -0.218770
v -0.148399 0.135332 -0.218770
v -0.148399 0.186132 -0.218770
v 0.181801 0.186132 -0.218770
v 0.181801 0.236932 -0.218770
v -0.148399 0.236932 -0.218770
v -0.148399 0.287732 -0.218770
v 0.181801 0.287732 -0.218770
v -0.173799 0.135332 -0.193370
v -0.173799 0.135332 0.136830
v -0.173799 0.186132 0.136830
v -0.173799 0.186132 -0.193370
v -0.173799 0.236932 -0.193370
v -0.173799 0.236932 0.136830
v -0.173799 0.287732 0.136830
v -0.173799 0.287732 -0.193370
v -0.148399 0.135332 0.154610
v 0.181801 0.135332 0.154610
v 0.181801 0.186132 0.154610
v -0.148399 0.186132 0.154610
v -0.148399 0.236932 0.154610
v 0.181801 0.236932 0.154610
v 0.181801 0.287732 0.154610
v -0.148399 0.287732 0.154610
v 0.199581 0.135332 0.136830
v 0.199581 0.135332 -0.193370
v 0.199581 0.186132 -0.193370
v 0.199581 0.186132 0.136830
v 0.199581 0.236932 0.136830
v 0.199581 0.236932 -0.193370
v 0.199581 0.287732 -0.193370
v 0.199581 0.287732 0.136830
v 0.181801 0.135332 -0.211150
v -0.148399 0.135332 -0.211150
v -0.148399 0.186132 -0.211150
v 0.181801 0.186132 -0.211150
v 0.181801 0.236932 -0.211150
v -0.148399 0.236932 -0.211150
v -0.148399 0.287732 -0.211150
v 0.181801 0.287732 -0.211150
v -0.166179 0.135332 -0.193370
v -0.166179 0.135332 0.136830
v -0.166179 0.186132 0.136830
v -0.166179 0.186132 -0.193370
v -0.166179 0.236932 -0.193370
v -0.166179 0.236932 0.136830
v -0.166179 0.287732 0.136830
v -0.166179 0.287732 -0.193370
v -0.161099 0.349218 0.149530
v 0.194501 0.349218 0.149530
v 0.194501 0.349218 -0.206070
v -0.161099 0.349218 -0.206070
v -0.161099 0.341598 0.149530
v 0.194501 0.341598 0.149530
v 0.194501 0.341598 -0.206070
v -0.161099 0.341598 -0.206070
v -0.173799 0.000000 0.035230
v -0.173799 0.000000 -0.091770
v -0.173799 0.101600 0.035230
v -0.173799 0.101600 -0.091770
v -0.154495 0.000000 -0.091770
v -0.154495 0.000000 0.035230
v -0.154495 0.101600 0.035230
v -0.154495 0.101600 -0.091770
v 0.013283 0.371971 0.024509
v 0.013283 0.371971 0.070838
v 0.081727 0.371971 0.024509
v 0.081727 0.371971 0.070838
v 0.013283 0.339109 0.024509
v 0.013283 0.339109 0.070838
v 0.081727 0.339109 0.024509
v 0.081727 0.339109 0.070838
v -0.138524 0.361139 -0.146317
v -0.138524 0.361139 -0.116268
v -0.094132 0.361139 -0.146317
v -0.094132 0.361139 -0.116268
v -0.138524 0.339825 -0.146317
v -0.138524 0.339825 -0.116268
v -0.094132 0.339825 -0.146317
v -0.094132 0.339825 -0.116268
v -0.138524 0.361139 -0.182861
v -0.138524 0.361139 -0.152812
v -0.094132 0.361139 -0.182861
v -0.094132 0.361139 -0.152812
v -0.138524 0.339825 -0.182861
v -0.138524 0.339825 -0.152812
v -0.094132 0.339825 -0.182861
v -0.094132 0.339825 -0.152812
v -0.156942 -0.000670 -0.055530
v -0.156942 -0.000670 -0.001010
v -0.156942 0.079377 -0.055530
v -0.156942 0.079377 -0.001010
v -0.153513 -0.000670 -0.055530
v -0.153513 -0.000670 -0.001010
v -0.153513 0.079377 -0.055530
v -0.153513 0.079377 -0.001010
vt 0.043891 0.485204
vt 0.043934 0.485204
vt 0.043934 0.485247
vt 0.043891 0.485247
vt 0.105112 0.429288
vt 0.105112 0.429288
vt 0.105112 0.429288
vt 0.105112 0.429288
vt 0.062516 0.760077
vt 0.498517 0.760077
vt 0.498517 0.814402
vt 0.062516 0.814402
vt 0.062516 0.760077
vt 0.498517 0.760077
vt 0.498517 0.814402
vt 0.062516 0.814402
vt 0.105112 0.429288
vt 0.105112 0.429288
vt 0.062516 0.760077
vt 0.498517 0.760077
vt 0.498517 0.814402
vt 0.062516 0.814402
vt 0.062516 0.760077
vt 0.498517 0.760077
vt 0.498517 0.814402
vt 0.062516 0.814402
vt 0.105113 0.429288
vt 0.105113 0.429288
vt 0.062516 0.760077
vt 0.498517 0.760077
vt 0.498517 0.814402
vt 0.062516 0.814402
vt 0.062516 0.760077
vt 0.498517 0.760077
vt 0.498517 0.814402
vt 0.062516 0.814402
vt 0.105112 0.429288
vt 0.105112 0.429288
vt 0.105112 0.429288
vt 0.105112 0.429288
vt 0.062516 0.760077
vt 0.498517 0.760077
vt 0.498517 0.814402
vt 0.062516 0.814402
vt 0.062516 0.760077
vt 0.498517 0.760077
vt 0.498517 0.814402
vt 0.062516 0.814402
vt 0.105112 0.487110
vt 0.105112 0.487110
vt 0.105112 0.487110
vt 0.105112 0.487110
vt 0.105112 0.487110
vt 0.105112 0.487110
vt 0.105112 0.487110
vt 0.105112 0.487110
vt 0.105112 0.487110
vt 0.105112 0.487110
vt 0.105112 0.487110
vt 0.105112 0.487110
vt 0.105112 0.487110
vt 0.105112 0.487110
vt 0.105112 0.487110
vt 0.105112 0.487110
vt 0.105112 0.487110
vt 0.105112 0.487110
vt 0.105112 0.487110
vt 0.105112 0.487110
vt 0.105112 0.487110
vt 0.105112 0.487110
vt 0.105112 0.487110
vt 0.105112 0.487110
vt 0.105112 0.487110
vt 0.105113 0.487110
vt 0.105112 0.487110
vt 0.105112 0.487110
vt 0.105113 0.487110
vt 0.105112 0.487110
vt 0.105112 0.487110
vt 0.105112 0.487110
vt 0.105112 0.487110
vt 0.105113 0.487110
vt 0.105112 0.487110
vt 0.105112 0.487110
vt 0.105112 0.487110
vt 0.105112 0.487110
vt 0.105112 0.487110
vt 0.105112 0.487110
vt 0.105112 0.487110
vt 0.105112 0.487110
vt 0.105112 0.487110
vt 0.105112 0.487110
vt 0.105112 0.487110
vt 0.105112 0.487110
vt 0.105112 0.487110
vt 0.105112 0.487110
vt 0.105112 0.487110
vt 0.105112 0.487110
vt 0.105112 0.487110
vt 0.105112 0.487110
vt 0.105112 0.487110
vt 0.105112 0.487110
vt 0.105112 0.487110
vt 0.105112 0.487110
vt 0.105112 0.487110
vt 0.105112 0.487110
vt 0.105112 0.487110
vt 0.105112 0.487110
vt 0.105112 0.487110
vt 0.105112 0.487110
vt 0.105112 0.487110
vt 0.105112 0.487110
vt 0.105112 0.487110
vt 0.105112 0.487110
vt 0.105112 0.487110
vt 0.105112 0.487110
vt 0.105112 0.487110
vt 0.105112 0.487110
vt 0.105112 0.487110
vt 0.105112 0.487110
vt 0.105112 0.487110
vt 0.105112 0.487110
vt 0.105112 0.487110
vt 0.105112 0.487110
vt 0.105112 0.487110
vt 0.105112 0.429289
vt 0.105112 0.429289
vt 0.105112 0.429289
vt 0.105112 0.429289
vt 0.105112 0.429289
vt 0.105112 0.429289
vt 0.105112 0.429289
vt 0.105112 0.429289
vt 0.105112 0.487111
vt 0.105112 0.487111
vt 0.105112 0.487111
vt 0.105112 0.487111
vt 0.105112 0.487111
vt 0.105112 0.487111
vt 0.105112 0.487111
vt 0.105112 0.487111
vt 0.105112 0.429288
vt 0.105112 0.429288
vt 0.105112 0.429288
vt 0.105112 0.429288
vt 0.105112 0.487110
vt 0.105112 0.487110
vt 0.105112 0.487110
vt 0.003505 0.667529
vt 0.038873 0.667529
vt 0.038873 0.721213
vt 0.003505 0.721213
vt 0.031668 0.673968
vt 0.031668 0.674936
vt 0.030304 0.674936
vt 0.030304 0.673968
vt 0.030207 0.675032
vt 0.030207 0.676000
vt 0.027891 0.676000
vt 0.027891 0.675032
vt 0.031668 0.675032
vt 0.031668 0.676000
vt 0.030304 0.676000
vt 0.030304 0.675032
vt 0.030207 0.673968
vt 0.030207 0.674936
vt 0.027891 0.674936
vt 0.027891 0.673968
vt 0.003505 0.667529
vt 0.038873 0.667529
vt 0.038873 0.721213
vt 0.003505 0.721213
vt 0.031668 0.673968
vt 0.031668 0.674936
vt 0.030304 0.674936
vt 0.030304 0.673968
vt 0.030207 0.675032
vt 0.030207 0.676000
vt 0.027891 0.676000
vt 0.027891 0.675032
vt 0.031668 0.675032
vt 0.031668 0.676000
vt 0.030304 0.676000
vt 0.030304 0.675032
vt 0.030207 0.673968
vt 0.030207 0.674936
vt 0.027891 0.674936
vt 0.027891 0.673968
vt 0.003505 0.667529
vt 0.038873 0.667529
vt 0.038873 0.721213
vt 0.003505 0.721213
vt 0.031668 0.673968
vt 0.031668 0.674936
vt 0.030304 0.674936
vt 0.030304 0.673968
vt 0.030207 0.675032
vt 0.030207 0.676000
vt 0.027891 0.676000
vt 0.027891 0.675032
vt 0.031668 0.675032
vt 0.031668 0.676000
vt 0.030304 0.676000
vt 0.030304 0.675032
vt 0.030207 0.673968
vt 0.030207 0.674936
vt 0.027891 0.674936
vt 0.027891 0.673968
vt 0.238298 0.821023
vt 0.348073 0.821023
vt 0.348073 0.996128
vt 0.238298 0.996128
vt 0.343708 0.911155
vt 0.345328 0.911155
vt 0.345328 0.948967
vt 0.343708 0.948967
vt 0.345228 0.948482
vt 0.343608 0.948482
vt 0.343608 0.922728
vt 0.345228 0.922728
vt 0.345128 0.948967
vt 0.343508 0.948967
vt 0.343508 0.911155
vt 0.345128 0.911155
vn 0.0000 1.0000 0.0000
vn 0.0000 0.0000 1.0000
vn 1.0000 0.0000 0.0000
vn 0.0000 0.0000 -1.0000
vn -1.0000 0.0000 0.0000
vn 0.0000 -1.0000 0.0000
vn 0.0000 0.9999 0.0127
vn 0.0127 0.9999 0.0000
vn 0.0000 0.9999 -0.0127
vn -0.0127 0.9999 0.0000
usemtl 14_-_Default.002
s 1
f 85/1/1 86/2/1 87/3/1 88/4/1
f 1/5/2 2/6/2 6/7/2 5/8/2
f 49/9/2 50/10/2 51/11/2 52/12/2
f 53/13/2 54/14/2 55/15/2 56/16/2
f 2/6/3 4/17/3 7/18/3 6/7/3
f 57/19/3 58/20/3 59/21/3 60/22/3
f 61/23/3 62/24/3 63/25/3 64/26/3
f 4/17/4 3/27/4 8/28/4 7/18/4
f 65/29/4 66/30/4 67/31/4 68/32/4
f 69/33/4 70/34/4 71/35/4 72/36/4
f 93/37/5 94/38/5 95/39/5 96/40/5
f 73/41/5 74/42/5 75/43/5 76/44/5
f 77/45/5 78/46/5 79/47/5 80/48/5
f 5/49/2 6/50/2 18/51/2 17/52/2
f 6/50/2 10/53/2 19/54/2 18/51/2
f 10/53/2 9/55/2 20/56/2 19/54/2
f 9/55/2 5/49/2 17/52/2 20/56/2
f 9/55/2 10/53/2 22/57/2 21/58/2
f 10/53/2 14/59/2 23/60/2 22/57/2
f 14/59/2 13/61/2 24/62/2 23/60/2
f 13/61/2 9/55/2 21/58/2 24/62/2
f 6/50/3 7/63/3 26/64/3 25/65/3
f 7/63/3 11/66/3 27/67/3 26/64/3
f 11/66/3 10/53/3 28/68/3 27/67/3
f 10/53/3 6/50/3 25/65/3 28/68/3
f 10/53/3 11/66/3 30/69/3 29/70/3
f 11/66/3 15/71/3 31/72/3 30/69/3
f 15/71/3 14/59/3 32/73/3 31/72/3
f 14/59/3 10/53/3 29/70/3 32/73/3
f 7/63/4 8/74/4 34/75/4 33/76/4
f 8/74/4 12/77/4 35/78/4 34/75/4
f 12/77/4 11/66/4 36/79/4 35/78/4
f 11/66/4 7/63/4 33/76/4 36/79/4
f 11/66/4 12/77/4 38/80/4 37/81/4
f 12/77/4 16/82/4 39/83/4 38/80/4
f 16/82/4 15/71/4 40/84/4 39/83/4
f 15/71/4 11/66/4 37/81/4 40/84/4
f 8/74/5 92/85/5 41/86/5
f 5/49/5 9/55/5 43/87/5 42/88/5
f 9/55/5 12/77/5 44/89/5 43/87/5
f 12/77/5 8/74/5 41/86/5 44/89/5
f 12/77/5 9/55/5 46/90/5 45/91/5
f 9/55/5 13/61/5 47/92/5 46/90/5
f 13/61/5 16/82/5 48/93/5 47/92/5
f 16/82/5 12/77/5 45/91/5 48/93/5
f 17/52/1 18/51/1 50/94/1 49/95/1
f 18/51/5 19/54/5 51/96/5 50/94/5
f 19/54/6 20/56/6 52/97/6 51/96/6
f 20/56/3 17/52/3 49/95/3 52/97/3
f 21/58/1 22/57/1 54/98/1 53/99/1
f 22/57/5 23/60/5 55/100/5 54/98/5
f 23/60/6 24/62/6 56/101/6 55/100/6
f 24/62/3 21/58/3 53/99/3 56/101/3
f 25/65/1 26/64/1 58/102/1 57/103/1
f 26/64/2 27/67/2 59/104/2 58/102/2
f 27/67/6 28/68/6 60/105/6 59/104/6
f 28/68/4 25/65/4 57/103/4 60/105/4
f 29/70/1 30/69/1 62/106/1 61/107/1
f 30/69/2 31/72/2 63/108/2 62/106/2
f 31/72/6 32/73/6 64/109/6 63/108/6
f 32/73/4 29/70/4 61/107/4 64/109/4
f 33/76/1 34/75/1 66/110/1 65/111/1
f 34/75/3 35/78/3 67/112/3 66/110/3
f 35/78/6 36/79/6 68/113/6 67/112/6
f 36/79/5 33/76/5 65/111/5 68/113/5
f 37/81/1 38/80/1 70/114/1 69/115/1
f 38/80/3 39/83/3 71/116/3 70/114/3
f 39/83/6 40/84/6 72/117/6 71/116/6
f 40/84/5 37/81/5 69/115/5 72/117/5
f 41/86/1 42/88/1 74/118/1 73/119/1
f 42/88/4 43/87/4 75/120/4 74/118/4
f 43/87/6 44/89/6 76/121/6 75/120/6
f 44/89/2 41/86/2 73/119/2 76/121/2
f 45/91/1 46/90/1 78/122/1 77/123/1
f 46/90/4 47/92/4 79/124/4 78/122/4
f 47/92/6 48/93/6 80/125/6 79/124/6
f 48/93/2 45/91/2 77/123/2 80/125/2
f 13/126/7 14/127/7 82/128/7 81/129/7
f 14/127/8 15/130/8 83/131/8 82/128/8
f 15/130/9 16/132/9 84/133/9 83/131/9
f 16/132/10 13/126/10 81/129/10 84/133/10
f 81/134/4 82/135/4 86/136/4 85/137/4
f 82/135/5 83/138/5 87/139/5 86/136/5
f 83/138/2 84/140/2 88/141/2 87/139/2
f 84/140/3 81/134/3 85/137/3 88/141/3
f 89/142/5 1/5/5 5/8/5 91/143/5
f 92/144/5 8/28/5 3/27/5 90/145/5
f 89/142/4 91/143/4 95/39/4 94/38/4
f 91/146/6 92/85/6 96/147/6 95/148/6
f 92/144/2 90/145/2 93/37/2 96/40/2
f 92/85/5 91/146/5 42/88/5 41/86/5
f 91/146/5 5/49/5 42/88/5
f 97/149/1 98/150/1 100/151/1 99/152/1
f 97/153/5 101/154/5 102/155/5 98/156/5
f 98/157/2 102/158/2 104/159/2 100/160/2
f 100/161/3 104/162/3 103/163/3 99/164/3
f 99/165/4 103/166/4 101/167/4 97/168/4
f 105/169/1 106/170/1 108/171/1 107/172/1
f 105/173/5 109/174/5 110/175/5 106/176/5
f 106/177/2 110/178/2 112/179/2 108/180/2
f 108/181/3 112/182/3 111/183/3 107/184/3
f 107/185/4 111/186/4 109/187/4 105/188/4
f 113/189/1 114/190/1 116/191/1 115/192/1
f 113/193/5 117/194/5 118/195/5 114/196/5
f 114/197/2 118/198/2 120/199/2 116/200/2
f 116/201/3 120/202/3 119/203/3 115/204/3
f 115/205/4 119/206/4 117/207/4 113/208/4
f 121/209/5 122/210/5 124/211/5 123/212/5
f 122/213/2 126/214/2 128/215/2 124/216/2
f 124/217/1 128/218/1 127/219/1 123/220/1
f 123/221/4 127/222/4 125/223/4 121/224/4
