# Blender v2.79 (sub 0) OBJ File: ''
# www.blender.org
mtllib BuildingB.mtl
o Box39
v -0.122963 -0.000000 0.220686
v 0.131037 -0.000000 0.220686
v -0.122963 -0.000000 -0.160314
v 0.131037 -0.000000 -0.160314
v -0.122963 0.508000 0.220686
v 0.131037 0.508000 0.220686
v -0.122963 0.508000 -0.160314
v 0.131037 0.508000 -0.160314
v -0.122963 -0.000000 -0.144756
v -0.122963 -0.000000 0.205129
v 0.131037 -0.000000 0.205129
v 0.131037 -0.000000 -0.144756
v 0.131037 0.508000 -0.144756
v 0.131037 0.508000 0.205129
v -0.122963 0.508000 0.205129
v -0.122963 0.508000 -0.144756
v 0.120665 -0.000000 -0.160314
v -0.112591 -0.000000 -0.160314
v -0.112591 -0.000000 0.220686
v 0.120665 -0.000000 0.220686
v 0.120665 0.508000 0.220686
v -0.112591 0.508000 0.220686
v -0.112591 0.508000 -0.160314
v 0.120665 0.508000 -0.160314
v -0.112591 -0.000000 0.213066
v 0.120665 -0.000000 0.213066
v 0.120665 0.508000 0.213066
v -0.112591 0.508000 0.213066
v 0.123417 -0.000000 0.205129
v 0.123417 -0.000000 -0.144756
v 0.123417 0.508000 -0.144756
v 0.123417 0.508000 0.205129
v 0.120665 -0.000000 -0.152694
v -0.112591 -0.000000 -0.152694
v -0.112591 0.508000 -0.152694
v 0.120665 0.508000 -0.152694
v -0.115343 -0.000000 -0.144756
v -0.115343 -0.000000 0.205129
v -0.115343 0.508000 0.205129
v -0.115343 0.508000 -0.144756
v -0.131943 0.508000 0.229666
v 0.140017 0.508000 0.229666
v 0.140017 0.508000 -0.169294
v -0.131943 0.508000 -0.169294
v 0.140017 0.520700 0.229666
v -0.131943 0.520700 0.229666
v -0.131943 0.520700 -0.169294
v 0.140017 0.520700 -0.169294
v -0.118670 0.040196 0.104228
v -0.118670 0.040196 0.194904
v -0.118670 0.087442 0.104228
v -0.118670 0.087442 0.194904
v -0.114860 0.040196 0.104228
v -0.114860 0.040196 0.194904
v -0.114860 0.087442 0.104228
v -0.114860 0.087442 0.194904
v -0.118670 0.141796 0.104228
v -0.118670 0.141796 0.194904
v -0.118670 0.189042 0.104228
v -0.118670 0.189042 0.194904
v -0.114860 0.141796 0.104228
v -0.114860 0.141796 0.194904
v -0.114860 0.189042 0.104228
v -0.114860 0.189042 0.194904
v -0.118670 0.243396 0.104228
v -0.118670 0.243396 0.194904
v -0.118670 0.290642 0.104228
v -0.118670 0.290642 0.194904
v -0.114860 0.243396 0.104228
v -0.114860 0.243396 0.194904
v -0.114860 0.290642 0.104228
v -0.114860 0.290642 0.194904
v -0.118670 0.344996 0.104228
v -0.118670 0.344996 0.194904
v -0.118670 0.392242 0.104228
v -0.118670 0.392242 0.194904
v -0.114860 0.344996 0.104228
v -0.114860 0.344996 0.194904
v -0.114860 0.392242 0.104228
v -0.114860 0.392242 0.194904
v -0.118670 0.446596 0.104228
v -0.118670 0.446596 0.194904
v -0.118670 0.493842 0.104228
v -0.118670 0.493842 0.194904
v -0.114860 0.446596 0.104228
v -0.114860 0.446596 0.194904
v -0.114860 0.493842 0.104228
v -0.114860 0.493842 0.194904
v -0.118670 0.446596 -0.134532
v -0.118670 0.446596 -0.043856
v -0.118670 0.493842 -0.134532
v -0.118670 0.493842 -0.043856
v -0.114860 0.446596 -0.134532
v -0.114860 0.446596 -0.043856
v -0.114860 0.493842 -0.134532
v -0.114860 0.493842 -0.043856
v -0.118670 0.344996 -0.134532
v -0.118670 0.344996 -0.043856
v -0.118670 0.392242 -0.134532
v -0.118670 0.392242 -0.043856
v -0.114860 0.344996 -0.134532
v -0.114860 0.344996 -0.043856
v -0.114860 0.392242 -0.134532
v -0.114860 0.392242 -0.043856
v -0.118670 0.243396 -0.134532
v -0.118670 0.243396 -0.043856
v -0.118670 0.290642 -0.134532
v -0.118670 0.290642 -0.043856
v -0.114860 0.243396 -0.134532
v -0.114860 0.243396 -0.043856
v -0.114860 0.290642 -0.134532
v -0.114860 0.290642 -0.043856
v -0.118670 0.141796 -0.134532
v -0.118670 0.141796 -0.043856
v -0.118670 0.189042 -0.134532
v -0.118670 0.189042 -0.043856
v -0.114860 0.141796 -0.134532
v -0.114860 0.141796 -0.043856
v -0.114860 0.189042 -0.134532
v -0.114860 0.189042 -0.043856
v -0.118670 0.040196 -0.134532
v -0.118670 0.040196 -0.043856
v -0.118670 0.087442 -0.134532
v -0.118670 0.087442 -0.043856
v -0.114860 0.040196 -0.134532
v -0.114860 0.040196 -0.043856
v -0.114860 0.087442 -0.134532
v -0.114860 0.087442 -0.043856
v -0.119243 0.520700 0.216966
v 0.127317 0.520700 0.216966
v 0.127317 0.520700 -0.156594
v -0.119243 0.520700 -0.156594
v -0.119243 0.518160 0.216966
v 0.127317 0.518160 0.216966
v 0.127317 0.518160 -0.156594
v -0.119243 0.518160 -0.156594
v -0.115343 -0.000000 -0.028128
v -0.115343 -0.000000 0.088500
v -0.115343 0.508000 0.088500
v -0.115343 0.508000 -0.028128
v 0.020975 0.517007 0.106490
v 0.020975 0.562960 0.106490
v 0.092458 0.562960 0.106490
v 0.092458 0.517007 0.106490
v 0.020975 0.517007 0.164161
v 0.092458 0.517007 0.164161
v 0.092458 0.562960 0.164161
v 0.020975 0.562960 0.164161
v 0.020975 0.551471 0.106490
v 0.092458 0.551471 0.106490
v 0.092458 0.551471 0.164161
v 0.020975 0.551471 0.164161
v -0.030126 0.517007 -0.115911
v -0.030126 0.562960 -0.115911
v -0.030126 0.562960 -0.044428
v -0.030126 0.517007 -0.044428
v -0.087797 0.517007 -0.115911
v -0.087797 0.517007 -0.044428
v -0.087797 0.562960 -0.044428
v -0.087797 0.562960 -0.115911
v -0.030126 0.551471 -0.115911
v -0.030126 0.551471 -0.044428
v -0.087797 0.551471 -0.044428
v -0.087797 0.551471 -0.115911
v 0.007931 0.539585 0.094258
v 0.041102 0.539585 0.094258
v 0.007931 0.539585 0.045254
v 0.041102 0.539585 0.045254
v 0.007931 0.516057 0.094258
v 0.041102 0.516057 0.094258
v 0.007931 0.516057 0.045254
v 0.041102 0.516057 0.045254
v -0.117470 0.000032 0.003103
v -0.117470 0.000032 0.057623
v -0.117470 0.080079 0.003103
v -0.117470 0.080079 0.057623
v -0.114041 0.000032 0.003103
v -0.114041 0.000032 0.057623
v -0.114041 0.080079 0.003103
v -0.114041 0.080079 0.057623
vt 0.219851 0.485222
vt 0.219851 0.485213
vt 0.219870 0.485213
vt 0.219870 0.485222
vt 0.219620 0.456411
vt 0.219620 0.456410
vt 0.219621 0.456410
vt 0.219621 0.456411
vt 0.219851 0.485222
vt 0.219851 0.485213
vt 0.219870 0.485213
vt 0.219870 0.485222
vt 0.219620 0.456411
vt 0.219620 0.456411
vt 0.219621 0.456411
vt 0.219621 0.456411
vt 0.073717 0.485535
vt 0.073717 0.485535
vt 0.073725 0.485535
vt 0.073725 0.485535
vt 0.073725 0.485534
vt 0.073725 0.485534
vt 0.073717 0.485534
vt 0.073717 0.485534
vt 0.073717 0.485534
vt 0.073717 0.485534
vt 0.073725 0.485534
vt 0.073725 0.485534
vt 0.073725 0.485535
vt 0.073725 0.485535
vt 0.073717 0.485535
vt 0.073717 0.485535
vt 0.073717 0.485537
vt 0.073725 0.485537
vt 0.073725 0.485536
vt 0.073717 0.485536
vt 0.073717 0.485536
vt 0.073725 0.485536
vt 0.073725 0.485535
vt 0.073717 0.485535
vt 0.073725 0.485538
vt 0.073717 0.485538
vt 0.073717 0.485538
vt 0.073725 0.485538
vt 0.073725 0.485539
vt 0.073717 0.485539
vt 0.073717 0.485538
vt 0.073725 0.485538
vt 0.073725 0.485537
vt 0.073717 0.485537
vt 0.073717 0.485537
vt 0.073725 0.485537
vt 0.073725 0.485537
vt 0.073717 0.485537
vt 0.073717 0.485538
vt 0.073725 0.485538
vt 0.043791 0.485108
vt 0.043791 0.485108
vt 0.043791 0.485108
vt 0.043791 0.485108
vt 0.043791 0.485108
vt 0.043791 0.485108
vt 0.043791 0.485108
vt 0.043791 0.485108
vt 0.043873 0.454879
vt 0.043881 0.454879
vt 0.043881 0.454885
vt 0.043873 0.454885
vt 0.248737 0.815692
vt 0.113043 0.815692
vt 0.113043 0.759467
vt 0.248737 0.759467
vt 0.254695 0.756724
vt 0.254695 0.759022
vt 0.200009 0.759022
vt 0.200009 0.756724
vt 0.213485 0.759182
vt 0.213485 0.756885
vt 0.241978 0.756885
vt 0.241978 0.759182
vt 0.200018 0.759187
vt 0.200018 0.756889
vt 0.254704 0.756889
vt 0.254704 0.759187
vt 0.241978 0.756909
vt 0.241978 0.759207
vt 0.213485 0.759207
vt 0.213485 0.756909
vt 0.248737 0.815692
vt 0.113043 0.815692
vt 0.113043 0.759467
vt 0.248737 0.759467
vt 0.254695 0.756724
vt 0.254695 0.759022
vt 0.200009 0.759022
vt 0.200009 0.756724
vt 0.213485 0.759182
vt 0.213485 0.756885
vt 0.241978 0.756885
vt 0.241978 0.759182
vt 0.200018 0.759187
vt 0.200018 0.756889
vt 0.254704 0.756889
vt 0.254704 0.759187
vt 0.241978 0.756909
vt 0.241978 0.759207
vt 0.213485 0.759207
vt 0.213485 0.756909
vt 0.248737 0.815692
vt 0.113043 0.815692
vt 0.113043 0.759467
vt 0.248737 0.759467
vt 0.254695 0.756724
vt 0.254695 0.759022
vt 0.200009 0.759022
vt 0.200009 0.756724
vt 0.213485 0.759182
vt 0.213485 0.756885
vt 0.241978 0.756885
vt 0.241978 0.759182
vt 0.200018 0.759187
vt 0.200018 0.756889
vt 0.254704 0.756889
vt 0.254704 0.759187
vt 0.241978 0.756909
vt 0.241978 0.759207
vt 0.213485 0.759207
vt 0.213485 0.756909
vt 0.248737 0.815692
vt 0.113043 0.815692
vt 0.113043 0.759467
vt 0.248737 0.759467
vt 0.254695 0.756724
vt 0.254695 0.759022
vt 0.200009 0.759022
vt 0.200009 0.756724
vt 0.213485 0.759182
vt 0.213485 0.756885
vt 0.241978 0.756885
vt 0.241978 0.759182
vt 0.200018 0.759187
vt 0.200018 0.756889
vt 0.254704 0.756889
vt 0.254704 0.759187
vt 0.241978 0.756909
vt 0.241978 0.759207
vt 0.213485 0.759207
vt 0.213485 0.756909
vt 0.248737 0.815692
vt 0.113043 0.815692
vt 0.113043 0.759467
vt 0.248737 0.759467
vt 0.254695 0.756724
vt 0.254695 0.759022
vt 0.200009 0.759022
vt 0.200009 0.756724
vt 0.213485 0.759182
vt 0.213485 0.756885
vt 0.241978 0.756885
vt 0.241978 0.759182
vt 0.200018 0.759187
vt 0.200018 0.756889
vt 0.254704 0.756889
vt 0.254704 0.759187
vt 0.241978 0.756909
vt 0.241978 0.759207
vt 0.213485 0.759207
vt 0.213485 0.756909
vt 0.248737 0.815692
vt 0.113043 0.815692
vt 0.113043 0.759467
vt 0.248737 0.759467
vt 0.254695 0.756724
vt 0.254695 0.759022
vt 0.200009 0.759022
vt 0.200009 0.756724
vt 0.213485 0.759182
vt 0.213485 0.756885
vt 0.241978 0.756885
vt 0.241978 0.759182
vt 0.200018 0.759187
vt 0.200018 0.756889
vt 0.254704 0.756889
vt 0.254704 0.759187
vt 0.241978 0.756909
vt 0.241978 0.759207
vt 0.213485 0.759207
vt 0.213485 0.756909
vt 0.248737 0.815692
vt 0.113043 0.815692
vt 0.113043 0.759467
vt 0.248737 0.759467
vt 0.254695 0.756724
vt 0.254695 0.759022
vt 0.200009 0.759022
vt 0.200009 0.756724
vt 0.213485 0.759182
vt 0.213485 0.756885
vt 0.241978 0.756885
vt 0.241978 0.759182
vt 0.200018 0.759187
vt 0.200018 0.756889
vt 0.254704 0.756889
vt 0.254704 0.759187
vt 0.241978 0.756909
vt 0.241978 0.759207
vt 0.213485 0.759207
vt 0.213485 0.756909
vt 0.248737 0.815692
vt 0.113043 0.815692
vt 0.113043 0.759467
vt 0.248737 0.759467
vt 0.254695 0.756724
vt 0.254695 0.759022
vt 0.200009 0.759022
vt 0.200009 0.756724
vt 0.213485 0.759182
vt 0.213485 0.756885
vt 0.241978 0.756885
vt 0.241978 0.759182
vt 0.200018 0.759187
vt 0.200018 0.756889
vt 0.254704 0.756889
vt 0.254704 0.759187
vt 0.241978 0.756909
vt 0.241978 0.759207
vt 0.213485 0.759207
vt 0.213485 0.756909
vt 0.248737 0.815692
vt 0.113043 0.815692
vt 0.113043 0.759467
vt 0.248737 0.759467
vt 0.254695 0.756724
vt 0.254695 0.759022
vt 0.200009 0.759022
vt 0.200009 0.756724
vt 0.213485 0.759182
vt 0.213485 0.756885
vt 0.241978 0.756885
vt 0.241978 0.759182
vt 0.200018 0.759187
vt 0.200018 0.756889
vt 0.254704 0.756889
vt 0.254704 0.759187
vt 0.241978 0.756909
vt 0.241978 0.759207
vt 0.213485 0.759207
vt 0.213485 0.756909
vt 0.248737 0.815692
vt 0.113043 0.815692
vt 0.113043 0.759467
vt 0.248737 0.759467
vt 0.254695 0.756724
vt 0.254695 0.759022
vt 0.200009 0.759022
vt 0.200009 0.756724
vt 0.213485 0.759182
vt 0.213485 0.756885
vt 0.241978 0.756885
vt 0.241978 0.759182
vt 0.200018 0.759187
vt 0.200018 0.756889
vt 0.254704 0.756889
vt 0.254704 0.759187
vt 0.241978 0.756909
vt 0.241978 0.759207
vt 0.213485 0.759207
vt 0.213485 0.756909
vt 0.043791 0.485108
vt 0.043791 0.485108
vt 0.043791 0.485108
vt 0.043791 0.485108
vt 0.043791 0.485108
vt 0.043791 0.485108
vt 0.043791 0.485108
vt 0.043791 0.485108
vt 0.219851 0.485215
vt 0.219851 0.485211
vt 0.219870 0.485211
vt 0.219870 0.485215
vt 0.219870 0.485220
vt 0.219870 0.485224
vt 0.219851 0.485224
vt 0.219851 0.485220
vt 0.219627 0.485296
vt 0.219627 0.485257
vt 0.219655 0.485257
vt 0.219655 0.485296
vt 0.219605 0.485296
vt 0.219578 0.485296
vt 0.219578 0.485257
vt 0.219605 0.485257
vt 0.219677 0.485257
vt 0.219677 0.485296
vt 0.043799 0.485104
vt 0.043783 0.485104
vt 0.043783 0.485092
vt 0.043799 0.485092
vt 0.043791 0.485110
vt 0.043782 0.485110
vt 0.043801 0.485110
vt 0.043772 0.485110
vt 0.219627 0.485296
vt 0.219627 0.485257
vt 0.219655 0.485257
vt 0.219655 0.485296
vt 0.219605 0.485296
vt 0.219578 0.485296
vt 0.219578 0.485257
vt 0.219605 0.485257
vt 0.219677 0.485257
vt 0.219677 0.485296
vt 0.043799 0.485104
vt 0.043783 0.485104
vt 0.043783 0.485092
vt 0.043799 0.485092
vt 0.043791 0.485110
vt 0.043782 0.485110
vt 0.043801 0.485110
vt 0.043772 0.485110
vt 0.003505 0.667529
vt 0.038873 0.667529
vt 0.038873 0.721213
vt 0.003505 0.721213
vt 0.031668 0.673968
vt 0.031668 0.674936
vt 0.030304 0.674936
vt 0.030304 0.673968
vt 0.030207 0.675032
vt 0.030207 0.676000
vt 0.027891 0.676000
vt 0.027891 0.675032
vt 0.031668 0.675032
vt 0.031668 0.676000
vt 0.030304 0.676000
vt 0.030304 0.675032
vt 0.030207 0.673968
vt 0.030207 0.674936
vt 0.027891 0.674936
vt 0.027891 0.673968
vt 0.000662 0.821418
vt 0.116225 0.821417
vt 0.116225 0.996220
vt 0.000662 0.996220
vt 0.116513 0.901902
vt 0.117892 0.901902
vt 0.117892 0.934090
vt 0.116513 0.934090
vt 0.117905 0.933889
vt 0.116526 0.933889
vt 0.116526 0.911966
vt 0.117905 0.911966
vt 0.117730 0.934090
vt 0.116351 0.934090
vt 0.116351 0.901902
vt 0.117729 0.901902
vn 0.0000 0.0000 1.0000
vn 1.0000 0.0000 0.0000
vn 0.0000 0.0000 -1.0000
vn -1.0000 0.0000 0.0000
vn 0.0000 1.0000 0.0000
vn 0.0000 -1.0000 0.0000
usemtl 14_-_Default
s 1
f 25/1/1 26/2/1 27/3/1 28/4/1
f 29/5/2 30/6/2 31/7/2 32/8/2
f 33/9/3 34/10/3 35/11/3 36/12/3
f 137/13/4 138/14/4 139/15/4 140/16/4
f 12/17/2 4/18/2 8/19/2 13/20/2
f 14/21/2 6/22/2 2/23/2 11/24/2
f 10/25/4 1/26/4 5/27/4 15/28/4
f 16/29/4 7/30/4 3/31/4 9/32/4
f 20/33/1 2/23/1 6/22/1 21/34/1
f 22/35/1 5/27/1 1/26/1 19/36/1
f 18/37/3 3/31/3 7/30/3 23/38/3
f 24/39/3 8/19/3 4/18/3 17/40/3
f 20/33/4 21/34/4 27/41/4 26/42/4
f 22/35/2 19/36/2 25/43/2 28/44/2
f 12/17/1 13/20/1 31/45/1 30/46/1
f 14/21/3 11/24/3 29/47/3 32/48/3
f 18/37/2 23/38/2 35/49/2 34/50/2
f 24/39/4 17/40/4 33/51/4 36/52/4
f 10/25/3 15/28/3 39/53/3 38/54/3
f 16/29/1 9/32/1 37/55/1 40/56/1
f 41/57/1 42/58/1 45/59/1 46/60/1
f 42/58/2 43/61/2 48/62/2 45/59/2
f 43/61/3 44/63/3 47/64/3 48/62/3
f 44/63/4 41/57/4 46/60/4 47/64/4
f 134/65/5 135/66/5 136/67/5 133/68/5
f 41/57/6 44/63/6 43/61/6 42/58/6
f 49/69/4 50/70/4 52/71/4 51/72/4
f 49/73/6 53/74/6 54/75/6 50/76/6
f 50/77/1 54/78/1 56/79/1 52/80/1
f 52/81/5 56/82/5 55/83/5 51/84/5
f 51/85/3 55/86/3 53/87/3 49/88/3
f 57/89/4 58/90/4 60/91/4 59/92/4
f 57/93/6 61/94/6 62/95/6 58/96/6
f 58/97/1 62/98/1 64/99/1 60/100/1
f 60/101/5 64/102/5 63/103/5 59/104/5
f 59/105/3 63/106/3 61/107/3 57/108/3
f 65/109/4 66/110/4 68/111/4 67/112/4
f 65/113/6 69/114/6 70/115/6 66/116/6
f 66/117/1 70/118/1 72/119/1 68/120/1
f 68/121/5 72/122/5 71/123/5 67/124/5
f 67/125/3 71/126/3 69/127/3 65/128/3
f 73/129/4 74/130/4 76/131/4 75/132/4
f 73/133/6 77/134/6 78/135/6 74/136/6
f 74/137/1 78/138/1 80/139/1 76/140/1
f 76/141/5 80/142/5 79/143/5 75/144/5
f 75/145/3 79/146/3 77/147/3 73/148/3
f 81/149/4 82/150/4 84/151/4 83/152/4
f 81/153/6 85/154/6 86/155/6 82/156/6
f 82/157/1 86/158/1 88/159/1 84/160/1
f 84/161/5 88/162/5 87/163/5 83/164/5
f 83/165/3 87/166/3 85/167/3 81/168/3
f 89/169/4 90/170/4 92/171/4 91/172/4
f 89/173/6 93/174/6 94/175/6 90/176/6
f 90/177/1 94/178/1 96/179/1 92/180/1
f 92/181/5 96/182/5 95/183/5 91/184/5
f 91/185/3 95/186/3 93/187/3 89/188/3
f 97/189/4 98/190/4 100/191/4 99/192/4
f 97/193/6 101/194/6 102/195/6 98/196/6
f 98/197/1 102/198/1 104/199/1 100/200/1
f 100/201/5 104/202/5 103/203/5 99/204/5
f 99/205/3 103/206/3 101/207/3 97/208/3
f 105/209/4 106/210/4 108/211/4 107/212/4
f 105/213/6 109/214/6 110/215/6 106/216/6
f 106/217/1 110/218/1 112/219/1 108/220/1
f 108/221/5 112/222/5 111/223/5 107/224/5
f 107/225/3 111/226/3 109/227/3 105/228/3
f 113/229/4 114/230/4 116/231/4 115/232/4
f 113/233/6 117/234/6 118/235/6 114/236/6
f 114/237/1 118/238/1 120/239/1 116/240/1
f 116/241/5 120/242/5 119/243/5 115/244/5
f 115/245/3 119/246/3 117/247/3 113/248/3
f 121/249/4 122/250/4 124/251/4 123/252/4
f 121/253/6 125/254/6 126/255/6 122/256/6
f 122/257/1 126/258/1 128/259/1 124/260/1
f 124/261/5 128/262/5 127/263/5 123/264/5
f 123/265/3 127/266/3 125/267/3 121/268/3
f 46/60/5 45/59/5 130/269/5 129/270/5
f 45/59/5 48/62/5 131/271/5 130/269/5
f 48/62/5 47/64/5 132/272/5 131/271/5
f 47/64/5 46/60/5 129/270/5 132/272/5
f 129/270/3 130/269/3 134/273/3 133/274/3
f 130/269/4 131/271/4 135/275/4 134/273/4
f 131/271/1 132/272/1 136/276/1 135/275/1
f 132/272/2 129/270/2 133/274/2 136/276/2
f 138/277/4 38/278/4 39/279/4 139/280/4
f 140/281/4 40/282/4 37/283/4 137/284/4
f 141/285/3 149/286/3 150/287/3 144/288/3
f 145/289/1 146/290/1 151/291/1 152/292/1
f 144/288/2 150/287/2 151/293/2 146/294/2
f 143/295/5 142/296/5 148/297/5 147/298/5
f 142/296/4 149/299/4 152/300/4 148/297/4
f 149/299/3 142/296/3 143/295/3 150/301/3
f 151/302/1 147/298/1 148/297/1 152/300/1
f 150/301/2 143/295/2 147/298/2 151/302/2
f 149/286/4 141/285/4 145/289/4 152/292/4
f 153/303/2 161/304/2 162/305/2 156/306/2
f 157/307/4 158/308/4 163/309/4 164/310/4
f 156/306/1 162/305/1 163/311/1 158/312/1
f 155/313/5 154/314/5 160/315/5 159/316/5
f 154/314/3 161/317/3 164/318/3 160/315/3
f 161/317/2 154/314/2 155/313/2 162/319/2
f 163/320/4 159/316/4 160/315/4 164/318/4
f 162/319/1 155/313/1 159/316/1 163/320/1
f 161/304/3 153/303/3 157/307/3 164/310/3
f 165/321/5 166/322/5 168/323/5 167/324/5
f 165/325/1 169/326/1 170/327/1 166/328/1
f 166/329/2 170/330/2 172/331/2 168/332/2
f 168/333/3 172/334/3 171/335/3 167/336/3
f 167/337/4 171/338/4 169/339/4 165/340/4
f 173/341/4 174/342/4 176/343/4 175/344/4
f 174/345/1 178/346/1 180/347/1 176/348/1
f 176/349/5 180/350/5 179/351/5 175/352/5
f 175/353/3 179/354/3 177/355/3 173/356/3
