# Blender v2.79 (sub 0) OBJ File: ''
# www.blender.org
mtllib Car3.mtl
o Box342
v 0.044467 0.009171 -0.156179
v -0.044469 0.009171 -0.156179
v -0.044469 0.009171 -0.073636
v 0.044467 0.009171 0.093770
v 0.044467 0.009171 0.149029
v -0.044469 0.009171 0.149029
v -0.029855 0.009171 0.093770
v -0.044469 0.009171 0.093770
v -0.044469 0.021428 0.096711
v -0.044469 0.027068 0.104474
v -0.044469 0.027068 0.114068
v -0.044469 0.021428 0.121831
v -0.044469 0.009171 0.124772
v -0.029860 0.009171 0.124772
v -0.029861 0.009171 -0.104638
v -0.044469 0.009171 -0.104638
v -0.044469 0.021428 -0.101697
v -0.044469 0.027068 -0.093934
v -0.044469 0.027068 -0.084340
v -0.044469 0.021428 -0.076577
v -0.029855 0.009171 -0.073636
v 0.044467 0.009171 -0.073636
v 0.044467 0.021428 -0.076577
v 0.029947 0.009171 -0.073636
v 0.044467 0.027068 -0.084340
v 0.044467 0.027068 -0.093934
v 0.044467 0.021428 -0.101697
v 0.044467 0.009171 -0.104638
v 0.029947 0.009171 -0.104638
v 0.044467 0.009171 0.124772
v 0.044467 0.021428 0.121831
v 0.029951 0.009171 0.124772
v 0.044467 0.027068 0.114068
v 0.044467 0.027068 0.104474
v 0.044467 0.021428 0.096711
v 0.029951 0.009171 0.093770
v -0.029845 0.021428 0.096711
v -0.029845 0.027068 0.104474
v -0.029845 0.027068 0.114068
v -0.029845 0.021428 0.121831
v -0.029855 0.021428 -0.101697
v -0.029855 0.027068 -0.093934
v -0.029855 0.027068 -0.084340
v -0.029856 0.021428 -0.076577
v 0.029947 0.021428 -0.076577
v 0.029947 0.027068 -0.084340
v 0.029947 0.027068 -0.093934
v 0.029947 0.021428 -0.101697
v 0.029951 0.021428 0.121831
v 0.029951 0.027068 0.114068
v 0.029951 0.027068 0.104474
v 0.029951 0.021428 0.096711
v -0.045199 0.007089 0.151846
v 0.045197 0.007089 0.151846
v 0.045197 0.013891 0.151846
v -0.045199 0.013891 0.151846
v -0.045199 0.007089 0.144811
v 0.045197 0.007089 0.144811
v 0.045197 0.013891 0.144811
v -0.045199 0.013891 0.144811
v -0.046786 0.008575 -0.150571
v 0.046784 0.008575 -0.150571
v 0.046784 0.015377 -0.150571
v -0.046786 0.015377 -0.150571
v -0.046786 0.008575 -0.157606
v 0.046784 0.008575 -0.157606
v 0.046784 0.015377 -0.157606
v -0.046786 0.015377 -0.157606
v 0.029947 0.009171 0.126470
v 0.029947 0.009171 -0.108165
v 0.029947 0.031947 0.126470
v 0.029947 0.031947 -0.108165
v -0.029867 0.009171 -0.108165
v -0.029851 0.009171 0.126470
v -0.029855 0.031947 -0.108165
v -0.029855 0.031947 0.126470
v 0.044644 0.047330 -0.053386
v 0.044644 0.037819 -0.053386
v 0.044644 0.037819 -0.061271
v 0.044644 0.047330 -0.061271
v -0.044647 0.039454 -0.061271
v -0.044647 0.036881 -0.061271
v -0.044647 0.036881 -0.053386
v -0.044647 0.039454 -0.053386
v 0.044644 0.030620 0.149135
v 0.044644 0.028047 0.149135
v 0.044644 0.028047 -0.156028
v 0.044644 0.030620 -0.156028
v -0.044656 0.030620 0.149135
v -0.044656 0.028047 0.149135
v -0.044656 0.028047 -0.156028
v -0.044656 0.030620 -0.156028
v 0.044584 0.074981 0.146287
v 0.044584 0.054498 0.146287
v 0.053240 0.054498 0.146287
v 0.053240 0.074981 0.146287
v 0.044584 0.074981 0.145329
v 0.044584 0.054498 0.145329
v 0.053240 0.054498 0.145329
v 0.053240 0.074981 0.145329
v -0.053223 0.074981 0.146287
v -0.053223 0.054498 0.146287
v -0.044567 0.054498 0.146287
v -0.044567 0.074981 0.146287
v -0.053223 0.074981 0.145329
v -0.053223 0.054498 0.145329
v -0.044567 0.054498 0.145329
v -0.044567 0.074981 0.145329
v -0.044469 0.059154 0.149029
v 0.044467 0.059154 0.149029
v -0.039728 0.089749 -0.138214
v -0.044469 0.059154 -0.153195
v -0.044469 0.035109 -0.156179
v 0.044467 0.035109 -0.156179
v -0.044469 0.035109 0.149029
v 0.044467 0.035109 0.149029
v 0.039726 0.089749 -0.138214
v 0.044467 0.059154 -0.153195
v -0.039728 0.089739 0.144919
v 0.039726 0.089739 0.144919
v -0.044647 0.039454 0.084370
v -0.044647 0.036881 0.084370
v -0.044647 0.036881 0.092254
v -0.044647 0.039454 0.092254
v 0.044644 0.040853 0.069948
v 0.044644 0.037435 0.069948
v 0.044644 0.037435 0.062063
v 0.044644 0.040853 0.062064
v 0.018523 0.095799 -0.106250
v -0.018525 0.095799 -0.106250
v -0.018525 0.095789 -0.012490
v 0.018523 0.095789 -0.012490
v 0.018523 0.088607 -0.121696
v -0.018525 0.088607 -0.121696
v -0.018525 0.088597 -0.007474
v 0.018523 0.088597 -0.007474
v 0.044644 0.013761 0.035368
v 0.044644 0.011839 0.035368
v 0.044644 0.011839 0.027483
v 0.044644 0.013761 0.027483
v 0.044644 0.013761 -0.015227
v 0.044644 0.011839 -0.015227
v 0.044644 0.011839 -0.023112
v 0.044644 0.013761 -0.023112
v -0.044647 0.013761 0.035368
v -0.044647 0.011839 0.035368
v -0.044647 0.011839 0.027483
v -0.044647 0.013761 0.027483
v -0.044647 0.013761 -0.015227
v -0.044647 0.011839 -0.015227
v -0.044647 0.011839 -0.023112
v -0.044647 0.013761 -0.023112
v -0.032505 0.013056 -0.076192
v -0.032505 0.020626 -0.078652
v -0.032505 0.025305 -0.085092
v -0.032505 0.025305 -0.093052
v -0.032505 0.020626 -0.099492
v -0.032505 0.013056 -0.101952
v -0.032505 0.005485 -0.099492
v -0.032505 0.000806 -0.093052
v -0.032505 0.000806 -0.085092
v -0.032505 0.005485 -0.078652
v -0.042809 0.013056 -0.076192
v -0.042809 0.020626 -0.078652
v -0.042809 0.025305 -0.085092
v -0.042809 0.025305 -0.093052
v -0.042809 0.020626 -0.099492
v -0.042809 0.013056 -0.101952
v -0.042809 0.005485 -0.099492
v -0.042809 0.000806 -0.093052
v -0.042809 0.000806 -0.085092
v -0.042809 0.005485 -0.078652
v -0.032505 0.013056 0.121992
v -0.032505 0.020626 0.119532
v -0.032505 0.025305 0.113092
v -0.032505 0.025305 0.105132
v -0.032505 0.020626 0.098692
v -0.032505 0.013056 0.096233
v -0.032505 0.005485 0.098692
v -0.032505 0.000806 0.105132
v -0.032505 0.000806 0.113092
v -0.032505 0.005485 0.119532
v -0.042809 0.013056 0.121992
v -0.042809 0.020626 0.119532
v -0.042809 0.025305 0.113092
v -0.042809 0.025305 0.105132
v -0.042809 0.020626 0.098692
v -0.042809 0.013056 0.096233
v -0.042809 0.005485 0.098692
v -0.042809 0.000806 0.105132
v -0.042809 0.000806 0.113092
v -0.042809 0.005485 0.119532
v 0.032505 0.013056 -0.076192
v 0.032505 0.020626 -0.078652
v 0.032505 0.025305 -0.085092
v 0.032505 0.025305 -0.093052
v 0.032505 0.020626 -0.099492
v 0.032505 0.013056 -0.101952
v 0.032505 0.005485 -0.099492
v 0.032505 0.000806 -0.093052
v 0.032505 0.000806 -0.085092
v 0.032505 0.005485 -0.078652
v 0.042809 0.013056 -0.076192
v 0.042809 0.020626 -0.078652
v 0.042809 0.025305 -0.085092
v 0.042809 0.025305 -0.093052
v 0.042809 0.020626 -0.099492
v 0.042809 0.013056 -0.101952
v 0.042809 0.005485 -0.099492
v 0.042809 0.000806 -0.093052
v 0.042809 0.000806 -0.085092
v 0.042809 0.005485 -0.078652
v 0.032505 0.013056 0.121992
v 0.032505 0.020626 0.119532
v 0.032505 0.025305 0.113092
v 0.032505 0.025305 0.105132
v 0.032505 0.020626 0.098692
v 0.032505 0.013056 0.096233
v 0.032505 0.005485 0.098692
v 0.032505 0.000806 0.105132
v 0.032505 0.000806 0.113092
v 0.032505 0.005485 0.119532
v 0.042809 0.013056 0.121992
v 0.042809 0.020626 0.119532
v 0.042809 0.025305 0.113092
v 0.042809 0.025305 0.105132
v 0.042809 0.020626 0.098693
v 0.042809 0.013056 0.096233
v 0.042809 0.005485 0.098693
v 0.042809 0.000806 0.105132
v 0.042809 0.000806 0.113092
v 0.042809 0.005485 0.119532
vt 0.260664 0.601834
vt 0.395877 0.601834
vt 0.395877 0.662128
vt 0.260664 0.662128
vt 0.190494 0.486269
vt 0.190494 0.486269
vt 0.190494 0.486269
vt 0.190495 0.486270
vt 0.190495 0.486270
vt 0.190495 0.486269
vt 0.190495 0.486269
vt 0.190496 0.486269
vt 0.190496 0.486269
vt 0.190496 0.486270
vt 0.190496 0.486270
vt 0.190497 0.486269
vt 0.190497 0.486269
vt 0.190497 0.486269
vt 0.190497 0.486270
vt 0.190494 0.486270
vt 0.120787 0.622528
vt 0.254140 0.622528
vt 0.254140 0.661488
vt 0.120787 0.661488
vt 0.190494 0.486269
vt 0.190494 0.486269
vt 0.190494 0.486269
vt 0.190495 0.486270
vt 0.190495 0.486270
vt 0.190495 0.486269
vt 0.190495 0.486269
vt 0.190496 0.486269
vt 0.190496 0.486269
vt 0.190496 0.486270
vt 0.190496 0.486270
vt 0.190497 0.486269
vt 0.190497 0.486269
vt 0.190497 0.486269
vt 0.190497 0.486270
vt 0.190494 0.486270
vt 0.044177 0.426890
vt 0.044177 0.426891
vt 0.044176 0.426891
vt 0.044176 0.426893
vt 0.044170 0.426893
vt 0.044170 0.426891
vt 0.044169 0.426891
vt 0.044169 0.426890
vt 0.044171 0.426894
vt 0.044170 0.426894
vt 0.044170 0.426899
vt 0.044170 0.426894
vt 0.044170 0.426899
vt 0.044171 0.426899
vt 0.044171 0.426894
vt 0.044170 0.426894
vt 0.044170 0.426899
vt 0.044171 0.426899
vt 0.044171 0.426894
vt 0.044170 0.426894
vt 0.044170 0.426899
vt 0.044176 0.426894
vt 0.044176 0.426899
vt 0.044177 0.426894
vt 0.044177 0.426899
vt 0.044178 0.426894
vt 0.044178 0.426899
vt 0.044176 0.426894
vt 0.044175 0.426894
vt 0.044175 0.426899
vt 0.044176 0.426899
vt 0.044177 0.426894
vt 0.044177 0.426899
vt 0.044178 0.426894
vt 0.044178 0.426899
vt 0.044176 0.426894
vt 0.044175 0.426894
vt 0.044175 0.426899
vt 0.044176 0.426899
vt 0.044177 0.426894
vt 0.044177 0.426899
vt 0.044178 0.426894
vt 0.044178 0.426899
vt 0.044176 0.426894
vt 0.044175 0.426894
vt 0.044176 0.426899
vt 0.044177 0.426894
vt 0.044177 0.426899
vt 0.044178 0.426894
vt 0.044178 0.426899
vt 0.158736 0.760450
vt 0.158688 0.813991
vt 0.135941 0.813991
vt 0.135995 0.760534
vt 0.044169 0.426890
vt 0.044177 0.426890
vt 0.044177 0.426895
vt 0.044169 0.426895
vt 0.044169 0.426890
vt 0.044177 0.426890
vt 0.044177 0.426895
vt 0.044169 0.426895
vt 0.044169 0.426890
vt 0.044177 0.426890
vt 0.044177 0.426895
vt 0.044169 0.426895
vt 0.044169 0.426890
vt 0.044177 0.426890
vt 0.044177 0.426895
vt 0.044169 0.426895
vt 0.044731 0.427234
vt 0.044731 0.427231
vt 0.044735 0.427231
vt 0.044735 0.427234
vt 0.044731 0.427234
vt 0.044731 0.427231
vt 0.044735 0.427231
vt 0.044735 0.427234
vt 0.044177 0.426895
vt 0.044177 0.426890
vt 0.044177 0.426890
vt 0.044177 0.426895
vt 0.044177 0.426895
vt 0.044177 0.426890
vt 0.044177 0.426890
vt 0.044177 0.426895
vt 0.073244 0.487520
vt 0.073244 0.487516
vt 0.073244 0.487516
vt 0.073244 0.487520
vt 0.073244 0.487520
vt 0.073244 0.487520
vt 0.073244 0.487516
vt 0.073244 0.487516
vt 0.044177 0.426899
vt 0.044169 0.426899
vt 0.135033 0.486173
vt 0.135033 0.486168
vt 0.135033 0.486168
vt 0.135033 0.486173
vt 0.135033 0.486173
vt 0.135033 0.486168
vt 0.135033 0.486168
vt 0.135033 0.486173
vt 0.073781 0.456128
vt 0.073781 0.456128
vt 0.073781 0.456123
vt 0.073781 0.456123
vt 0.135033 0.486173
vt 0.135033 0.486168
vt 0.135033 0.486168
vt 0.135033 0.486173
vt 0.135033 0.486173
vt 0.135033 0.486168
vt 0.135033 0.486168
vt 0.135033 0.486173
vt 0.073781 0.456128
vt 0.073781 0.456128
vt 0.073781 0.456123
vt 0.073781 0.456123
vt 0.160837 0.760765
vt 0.160789 0.813991
vt 0.135041 0.813991
vt 0.135094 0.760534
vt 0.159173 0.813991
vt 0.158990 0.760765
vt 0.158990 0.760765
vt 0.159173 0.813991
vt 0.135069 0.487879
vt 0.135069 0.487917
vt 0.135024 0.487917
vt 0.135024 0.487879
vt 0.134052 0.486562
vt 0.134052 0.486563
vt 0.134050 0.486563
vt 0.134050 0.486562
vt 0.135069 0.487876
vt 0.135069 0.487916
vt 0.135024 0.487916
vt 0.135024 0.487876
vt 0.134052 0.486562
vt 0.134052 0.486563
vt 0.134050 0.486563
vt 0.134050 0.486562
vt 0.151440 0.760534
vt 0.151386 0.813991
vt 0.151386 0.813991
vt 0.151440 0.760534
vt 0.074225 0.396116
vt 0.073414 0.395885
vt 0.073414 0.395885
vt 0.074225 0.396116
vt 0.044177 0.426895
vt 0.044177 0.426890
vt 0.044177 0.426890
vt 0.044177 0.426895
vt 0.044177 0.426895
vt 0.044177 0.426890
vt 0.044177 0.426890
vt 0.044177 0.426895
vt 0.074004 0.369426
vt 0.071049 0.369195
vt 0.071049 0.369195
vt 0.074004 0.369426
vt 0.074004 0.369426
vt 0.071049 0.369195
vt 0.071049 0.369195
vt 0.074004 0.369426
vt 0.044177 0.426895
vt 0.044177 0.426890
vt 0.044177 0.426890
vt 0.044177 0.426895
vt 0.044177 0.426895
vt 0.044177 0.426890
vt 0.044177 0.426890
vt 0.044177 0.426895
vt 0.044177 0.426895
vt 0.044177 0.426895
vt 0.044177 0.426890
vt 0.044177 0.426890
vt 0.044177 0.426895
vt 0.044177 0.426895
vt 0.044177 0.426890
vt 0.044177 0.426890
vt 0.050270 0.660420
vt 0.050277 0.660415
vt 0.050285 0.660415
vt 0.050292 0.660420
vt 0.050294 0.660427
vt 0.050292 0.660435
vt 0.050285 0.660440
vt 0.050277 0.660440
vt 0.050270 0.660435
vt 0.050268 0.660427
vt 0.050295 0.660445
vt 0.050291 0.660445
vt 0.050298 0.660445
vt 0.050270 0.660445
vt 0.050273 0.660445
vt 0.050276 0.660445
vt 0.050279 0.660445
vt 0.050282 0.660445
vt 0.050285 0.660445
vt 0.050288 0.660445
vt 0.617580 0.816102
vt 0.606966 0.783435
vt 0.617580 0.750768
vt 0.645368 0.730579
vt 0.679716 0.730579
vt 0.707504 0.750768
vt 0.718118 0.783435
vt 0.707504 0.816102
vt 0.679716 0.836291
vt 0.645368 0.836291
vt 0.050270 0.660420
vt 0.050277 0.660415
vt 0.050285 0.660415
vt 0.050292 0.660420
vt 0.050294 0.660427
vt 0.050292 0.660435
vt 0.050285 0.660440
vt 0.050277 0.660440
vt 0.050270 0.660435
vt 0.050268 0.660427
vt 0.050295 0.660445
vt 0.050291 0.660445
vt 0.050298 0.660445
vt 0.050270 0.660445
vt 0.050273 0.660445
vt 0.050276 0.660445
vt 0.050279 0.660445
vt 0.050282 0.660445
vt 0.050285 0.660445
vt 0.050288 0.660445
vt 0.617580 0.816102
vt 0.606966 0.783435
vt 0.617580 0.750768
vt 0.645368 0.730579
vt 0.679716 0.730579
vt 0.707504 0.750768
vt 0.718118 0.783435
vt 0.707504 0.816102
vt 0.679716 0.836291
vt 0.645368 0.836291
vt 0.050270 0.660420
vt 0.050268 0.660427
vt 0.050270 0.660435
vt 0.050277 0.660440
vt 0.050285 0.660440
vt 0.050292 0.660435
vt 0.050294 0.660427
vt 0.050292 0.660420
vt 0.050285 0.660415
vt 0.050277 0.660415
vt 0.050291 0.660445
vt 0.050295 0.660445
vt 0.050298 0.660445
vt 0.050270 0.660445
vt 0.050273 0.660445
vt 0.050276 0.660445
vt 0.050279 0.660445
vt 0.050282 0.660445
vt 0.050285 0.660445
vt 0.050288 0.660445
vt 0.617580 0.816102
vt 0.645368 0.836291
vt 0.679716 0.836291
vt 0.707504 0.816102
vt 0.718118 0.783435
vt 0.707504 0.750768
vt 0.679716 0.730579
vt 0.645368 0.730579
vt 0.617580 0.750768
vt 0.606966 0.783435
vt 0.050270 0.660420
vt 0.050268 0.660427
vt 0.050270 0.660435
vt 0.050277 0.660440
vt 0.050285 0.660440
vt 0.050292 0.660435
vt 0.050294 0.660427
vt 0.050292 0.660420
vt 0.050285 0.660415
vt 0.050277 0.660415
vt 0.050291 0.660445
vt 0.050295 0.660445
vt 0.050298 0.660445
vt 0.050270 0.660445
vt 0.050273 0.660445
vt 0.050276 0.660445
vt 0.050279 0.660445
vt 0.050282 0.660445
vt 0.050285 0.660445
vt 0.050288 0.660445
vt 0.617580 0.816102
vt 0.645368 0.836291
vt 0.679716 0.836291
vt 0.707504 0.816102
vt 0.718118 0.783435
vt 0.707504 0.750768
vt 0.679716 0.730579
vt 0.645368 0.730579
vt 0.617580 0.750768
vt 0.606966 0.783435
vn -0.0000 -0.0000 -1.0000
vn -1.0000 0.0000 -0.0000
vn -0.0000 -0.0000 1.0000
vn 1.0000 0.0000 0.0000
vn -0.0000 -1.0000 -0.0000
vn 0.0000 -0.2333 -0.9724
vn 0.0000 -0.5555 -0.8315
vn -0.0000 -0.2333 0.9724
vn -0.0000 -0.5555 0.8315
vn 0.0000 -0.5556 -0.8314
vn -0.0000 -0.5556 0.8315
vn -0.0000 -0.9511 0.3090
vn -0.0000 -0.9511 -0.3090
vn -0.0000 -0.5556 0.8314
vn 0.0000 0.4398 -0.8981
vn 0.0000 1.0000 -0.0000
vn -1.0000 0.0002 0.0000
vn 0.0000 0.1332 0.9911
vn -0.9882 0.1532 0.0000
vn 0.0000 0.1232 -0.9924
vn 0.9882 0.1532 0.0000
vn 0.0000 1.0000 0.0001
vn 0.0000 0.9065 -0.4221
vn 0.0000 0.5721 0.8202
vn -0.0000 0.5878 0.8090
vn -0.0000 0.9511 0.3090
vn -0.0000 0.9511 -0.3090
vn 0.0000 0.5878 -0.8090
vn 0.0000 -0.5878 -0.8090
vn 0.0000 -0.5878 0.8090
usemtl 14_-_Default.002
s 1
f 1/1/1 2/2/1 113/3/1 114/4/1
f 2/5/2 16/6/2 17/7/2 18/8/2 19/9/2 20/10/2 3/11/2 8/12/2 9/13/2 10/14/2 11/15/2 12/16/2 13/17/2 6/18/2 115/19/2 113/20/2
f 6/21/3 5/22/3 116/23/3 115/24/3
f 5/25/4 30/26/4 31/27/4 33/28/4 34/29/4 35/30/4 4/31/4 22/32/4 23/33/4 25/34/4 26/35/4 27/36/4 28/37/4 1/38/4 114/39/4 116/40/4
f 1/41/5 28/42/5 29/43/5 24/44/5 21/45/5 15/46/5 16/47/5 2/48/5
f 21/45/6 3/49/6 20/50/7 44/51/7
f 29/43/8 28/42/8 27/52/9 48/53/9
f 14/54/6 13/55/6 12/56/7 40/57/10
f 36/58/8 4/59/8 35/60/9 52/61/9
f 17/62/9 16/47/8 15/46/8 41/63/11
f 18/64/12 17/62/9 41/63/11 42/65/12
f 19/66/13 18/64/12 42/65/12 43/67/13
f 20/50/7 19/66/13 43/67/13 44/51/7
f 9/68/9 8/69/8 7/70/8 37/71/14
f 10/72/12 9/68/9 37/71/14 38/73/12
f 11/74/13 10/72/12 38/73/12 39/75/13
f 12/56/7 11/74/13 39/75/13 40/57/10
f 31/76/7 30/77/6 32/78/6 49/79/7
f 33/80/13 31/76/7 49/79/7 50/81/13
f 34/82/12 33/80/13 50/81/13 51/83/12
f 35/60/9 34/82/12 51/83/12 52/61/9
f 23/84/7 22/85/6 24/44/6 45/86/7
f 25/87/13 23/84/7 45/86/7 46/88/13
f 26/89/12 25/87/13 46/88/13 47/90/12
f 27/52/9 26/89/12 47/90/12 48/53/9
f 117/91/15 118/92/15 112/93/15 111/94/15
f 53/95/3 54/96/3 55/97/3 56/98/3
f 54/96/5 53/95/5 57/99/5 58/100/5
f 55/97/4 54/96/4 58/100/4 59/101/4
f 56/98/16 55/97/16 59/101/16 60/102/16
f 53/95/2 56/98/2 60/102/2 57/99/2
f 57/99/1 60/102/1 59/101/1 58/100/1
f 61/103/3 62/104/3 63/105/3 64/106/3
f 62/104/5 61/103/5 65/107/5 66/108/5
f 63/105/4 62/104/4 66/108/4 67/109/4
f 64/106/16 63/105/16 67/109/16 68/110/16
f 61/103/2 64/106/2 68/110/2 65/107/2
f 65/107/1 68/110/1 67/109/1 66/108/1
f 24/44/5 22/85/5 4/59/5 36/58/5 7/70/5 8/69/5 3/49/5 21/45/5
f 71/111/4 69/112/4 70/113/4 72/114/4
f 75/115/17 73/116/17 74/117/17 76/118/17
f 77/119/4 78/120/4 79/121/4 80/122/4
f 81/123/2 82/124/2 83/125/2 84/126/2
f 85/127/4 86/128/4 87/129/4 88/130/4
f 89/131/2 92/132/2 91/133/2 90/134/2
f 36/58/5 32/78/5 30/77/5 5/135/5 6/136/5 13/55/5 14/54/5 7/70/5
f 93/137/3 94/138/3 95/139/3 96/140/3
f 94/138/2 93/137/2 97/141/2 98/142/2
f 95/139/5 94/138/5 98/142/5 99/143/5
f 96/140/4 95/139/4 99/143/4 100/144/4
f 93/137/16 96/140/16 100/144/16 97/141/16
f 97/145/1 100/146/1 99/147/1 98/148/1
f 101/149/3 102/150/3 103/151/3 104/152/3
f 102/150/2 101/149/2 105/153/2 106/154/2
f 103/151/5 102/150/5 106/154/5 107/155/5
f 104/152/4 103/151/4 107/155/4 108/156/4
f 101/149/16 104/152/16 108/156/16 105/153/16
f 105/157/1 108/158/1 107/159/1 106/160/1
f 119/161/18 109/162/18 110/163/18 120/164/18
f 109/165/19 119/166/19 111/167/19 112/168/19
f 113/169/20 112/170/20 118/171/20 114/172/20
f 115/173/2 109/174/2 112/175/2 113/176/2
f 116/177/3 110/178/3 109/179/3 115/180/3
f 114/181/4 118/182/4 110/183/4 116/184/4
f 120/185/21 110/186/21 118/187/21 117/188/21
f 117/189/16 111/190/16 119/191/16 120/192/16
f 121/193/2 122/194/2 123/195/2 124/196/2
f 125/197/4 126/198/4 127/199/4 128/200/4
f 129/201/22 130/202/22 131/203/22 132/204/22
f 130/202/23 129/201/23 133/205/23 134/206/23
f 131/203/2 130/202/2 134/206/2 135/207/2
f 132/204/24 131/203/24 135/207/24 136/208/24
f 129/201/4 132/204/4 136/208/4 133/205/4
f 137/209/4 138/210/4 139/211/4 140/212/4
f 141/213/4 142/214/4 143/215/4 144/216/4
f 145/217/2 148/218/2 147/219/2 146/220/2
f 149/221/2 152/222/2 151/223/2 150/224/2
f 162/225/4 161/226/4 160/227/4 159/228/4 158/229/4 157/230/4 156/231/4 155/232/4 154/233/4 153/234/4
f 153/234/3 154/233/25 164/235/25 163/236/3
f 154/233/25 155/232/26 165/237/26 164/235/25
f 155/232/26 156/231/27 166/238/27 165/237/26
f 156/231/27 157/230/28 167/239/28 166/238/27
f 157/230/28 158/229/1 168/240/1 167/239/28
f 158/229/1 159/228/29 169/241/29 168/240/1
f 159/228/29 160/227/13 170/242/13 169/241/29
f 160/227/13 161/226/12 171/243/12 170/242/13
f 161/226/12 162/225/30 172/244/30 171/243/12
f 162/225/30 153/234/3 163/236/3 172/244/30
f 172/245/2 163/246/2 164/247/2 165/248/2 166/249/2 167/250/2 168/251/2 169/252/2 170/253/2 171/254/2
f 182/255/4 181/256/4 180/257/4 179/258/4 178/259/4 177/260/4 176/261/4 175/262/4 174/263/4 173/264/4
f 173/264/3 174/263/25 184/265/25 183/266/3
f 174/263/25 175/262/26 185/267/26 184/265/25
f 175/262/26 176/261/27 186/268/27 185/267/26
f 176/261/27 177/260/28 187/269/28 186/268/27
f 177/260/28 178/259/1 188/270/1 187/269/28
f 178/259/1 179/258/29 189/271/29 188/270/1
f 179/258/29 180/257/13 190/272/13 189/271/29
f 180/257/13 181/256/12 191/273/12 190/272/13
f 181/256/12 182/255/30 192/274/30 191/273/12
f 182/255/30 173/264/3 183/266/3 192/274/30
f 192/275/2 183/276/2 184/277/2 185/278/2 186/279/2 187/280/2 188/281/2 189/282/2 190/283/2 191/284/2
f 202/285/2 193/286/2 194/287/2 195/288/2 196/289/2 197/290/2 198/291/2 199/292/2 200/293/2 201/294/2
f 193/286/3 203/295/3 204/296/25 194/287/25
f 194/287/25 204/296/25 205/297/26 195/288/26
f 195/288/26 205/297/26 206/298/27 196/289/27
f 196/289/27 206/298/27 207/299/28 197/290/28
f 197/290/28 207/299/28 208/300/1 198/291/1
f 198/291/1 208/300/1 209/301/29 199/292/29
f 199/292/29 209/301/29 210/302/13 200/293/13
f 200/293/13 210/302/13 211/303/12 201/294/12
f 201/294/12 211/303/12 212/304/30 202/285/30
f 202/285/30 212/304/30 203/295/3 193/286/3
f 212/305/4 211/306/4 210/307/4 209/308/4 208/309/4 207/310/4 206/311/4 205/312/4 204/313/4 203/314/4
f 222/315/2 213/316/2 214/317/2 215/318/2 216/319/2 217/320/2 218/321/2 219/322/2 220/323/2 221/324/2
f 213/316/3 223/325/3 224/326/25 214/317/25
f 214/317/25 224/326/25 225/327/26 215/318/26
f 215/318/26 225/327/26 226/328/27 216/319/27
f 216/319/27 226/328/27 227/329/28 217/320/28
f 217/320/28 227/329/28 228/330/1 218/321/1
f 218/321/1 228/330/1 229/331/29 219/322/29
f 219/322/29 229/331/29 230/332/13 220/323/13
f 220/323/13 230/332/13 231/333/12 221/324/12
f 221/324/12 231/333/12 232/334/30 222/315/30
f 222/315/30 232/334/30 223/325/3 213/316/3
f 232/335/4 231/336/4 230/337/4 229/338/4 228/339/4 227/340/4 226/341/4 225/342/4 224/343/4 223/344/4
