# Blender v2.79 (sub 0) OBJ File: ''
# www.blender.org
mtllib Car6.mtl
o Box402
v 0.029627 0.010061 -0.060924
v -0.033201 0.010061 -0.060924
v -0.033201 0.010061 -0.017195
v 0.029627 0.010061 0.044962
v 0.029627 0.010061 0.095395
v -0.033201 0.010061 0.095395
v -0.033201 0.027901 0.086898
v 0.029627 0.027901 0.086898
v -0.021311 0.010061 0.044962
v -0.033201 0.010061 0.044962
v -0.033201 0.017421 0.047353
v -0.033201 0.022006 0.053664
v -0.033201 0.022006 0.061465
v -0.033201 0.017421 0.067776
v -0.033201 0.010061 0.070167
v -0.021311 0.010061 0.070167
v -0.021315 0.010061 -0.042400
v -0.033201 0.010061 -0.042400
v -0.033201 0.017421 -0.040008
v -0.033201 0.022006 -0.033697
v -0.033201 0.022006 -0.025897
v -0.021315 0.010061 -0.017195
v 0.029627 0.010061 -0.017195
v 0.029627 0.017421 -0.019586
v 0.017828 0.010061 -0.017195
v 0.029627 0.022006 -0.025897
v 0.029627 0.022006 -0.033697
v 0.029627 0.017421 -0.040008
v 0.029627 0.010061 -0.042400
v 0.017828 0.010061 -0.042400
v 0.029627 0.010061 0.070167
v 0.029627 0.017421 0.067776
v 0.017825 0.010061 0.070167
v 0.029627 0.022006 0.061465
v 0.029627 0.022006 0.053664
v 0.029627 0.017421 0.047353
v 0.017825 0.010061 0.044962
v -0.021311 0.017421 0.047353
v -0.021311 0.022006 0.053664
v -0.021311 0.022006 0.061465
v -0.021311 0.017421 0.067776
v -0.021315 0.017421 -0.040008
v -0.021315 0.022006 -0.033697
v -0.021315 0.022006 -0.025897
v -0.021315 0.017421 -0.019586
v 0.017828 0.017421 -0.019586
v 0.017828 0.022006 -0.025897
v 0.017828 0.022006 -0.033697
v 0.017828 0.017421 -0.040008
v 0.017825 0.017421 0.067776
v 0.017825 0.022006 0.061465
v 0.017825 0.022006 0.053664
v 0.017825 0.017421 0.047353
v -0.035084 0.009004 0.096155
v 0.031510 0.009004 0.096155
v 0.031510 0.014534 0.096155
v -0.035084 0.014534 0.096155
v -0.035084 0.009004 0.090435
v 0.031510 0.009004 0.090435
v 0.031510 0.014534 0.090435
v -0.035084 0.014534 0.090435
v -0.035084 0.009577 -0.056365
v 0.031510 0.009577 -0.056365
v 0.031510 0.015107 -0.056365
v -0.035084 0.015107 -0.056365
v -0.035084 0.009577 -0.062085
v 0.031510 0.009577 -0.062085
v 0.031510 0.015107 -0.062085
v -0.035084 0.015107 -0.062085
v 0.017827 0.010061 0.073645
v 0.017822 0.010061 -0.046672
v 0.017827 0.025973 0.066394
v 0.017822 0.025973 -0.041035
v -0.021315 0.010061 -0.046672
v -0.021315 0.010061 0.073645
v -0.021315 0.025973 -0.041035
v -0.021315 0.025973 0.066394
v 0.029771 0.027555 0.021307
v 0.029771 0.025463 0.021307
v 0.029771 0.025463 0.014896
v 0.029771 0.027555 0.014896
v -0.033345 0.027555 0.014896
v -0.033345 0.025463 0.014896
v -0.033345 0.025463 0.021307
v -0.033345 0.027555 0.021307
v 0.029771 0.024894 0.088299
v 0.029771 0.022802 0.089337
v 0.029771 0.022802 -0.058002
v 0.029771 0.024894 -0.057472
v -0.033353 0.024894 0.088299
v -0.033353 0.022802 0.089337
v -0.033353 0.022802 -0.058002
v -0.033353 0.024894 -0.057472
v 0.030264 0.036090 0.052358
v 0.030264 0.030560 0.052358
v 0.037301 0.030560 0.052358
v 0.037301 0.036090 0.052358
v 0.030264 0.036090 0.051579
v 0.030264 0.030560 0.051579
v 0.037301 0.030560 0.051579
v 0.037301 0.036090 0.051579
v -0.041016 0.036090 0.052358
v -0.041016 0.030560 0.052358
v -0.033979 0.030560 0.052358
v -0.033979 0.036090 0.052358
v -0.041016 0.036090 0.051579
v -0.041016 0.030560 0.051579
v -0.033979 0.030560 0.051579
v -0.033979 0.036090 0.051579
v -0.033201 0.017421 -0.019586
v 0.022555 0.047904 0.011625
v -0.026129 0.047904 0.011625
v 0.022555 0.047907 0.038670
v -0.026129 0.047907 0.038670
v 0.022555 0.047907 -0.015653
v -0.026129 0.047907 -0.015653
v -0.033201 0.031140 0.011625
v -0.033201 0.031140 0.053510
v 0.029627 0.031140 0.053510
v 0.029627 0.031140 0.011625
v 0.029627 0.031149 -0.032994
v -0.033201 0.031149 -0.032997
v 0.029627 0.031004 -0.056113
v -0.033201 0.031004 -0.056113
v 0.029771 0.027555 -0.014122
v 0.029771 0.025463 -0.014122
v 0.029771 0.025463 -0.020532
v 0.029771 0.027555 -0.020532
v -0.033345 0.027555 -0.020532
v -0.033345 0.025463 -0.020532
v -0.033345 0.025463 -0.014122
v -0.033345 0.027555 -0.014122
v -0.024003 0.009987 0.068056
v -0.024003 0.016142 0.066056
v -0.024003 0.019946 0.060820
v -0.024003 0.019946 0.054349
v -0.024003 0.016142 0.049113
v -0.024003 0.009987 0.047113
v -0.024003 0.003832 0.049113
v -0.024003 0.000028 0.054349
v -0.024003 0.000028 0.060820
v -0.024003 0.003832 0.066056
v -0.032380 0.009987 0.068056
v -0.032380 0.016142 0.066056
v -0.032380 0.019946 0.060820
v -0.032380 0.019946 0.054349
v -0.032380 0.016142 0.049113
v -0.032380 0.009987 0.047113
v -0.032380 0.003832 0.049113
v -0.032380 0.000028 0.054349
v -0.032380 0.000028 0.060820
v -0.032380 0.003832 0.066056
v -0.024003 0.009987 -0.019550
v -0.024003 0.016142 -0.021550
v -0.024003 0.019946 -0.026785
v -0.024003 0.019946 -0.033257
v -0.024003 0.016142 -0.038493
v -0.024003 0.009987 -0.040492
v -0.024003 0.003832 -0.038493
v -0.024003 0.000028 -0.033257
v -0.024003 0.000028 -0.026785
v -0.024003 0.003832 -0.021550
v -0.032380 0.009987 -0.019550
v -0.032380 0.016142 -0.021550
v -0.032380 0.019946 -0.026785
v -0.032380 0.019946 -0.033257
v -0.032380 0.016142 -0.038493
v -0.032379 0.009987 -0.040492
v -0.032379 0.003832 -0.038493
v -0.032380 0.000028 -0.033257
v -0.032380 0.000028 -0.026785
v -0.032380 0.003832 -0.021550
v 0.020381 0.009987 -0.040492
v 0.020381 0.016142 -0.038493
v 0.020381 0.019946 -0.033257
v 0.020381 0.019946 -0.026785
v 0.020381 0.016142 -0.021550
v 0.020381 0.009987 -0.019550
v 0.020381 0.003832 -0.021550
v 0.020381 0.000028 -0.026785
v 0.020381 0.000028 -0.033257
v 0.020381 0.003832 -0.038493
v 0.028758 0.009987 -0.040492
v 0.028758 0.016142 -0.038493
v 0.028758 0.019946 -0.033257
v 0.028758 0.019946 -0.026785
v 0.028758 0.016142 -0.021550
v 0.028758 0.009987 -0.019550
v 0.028758 0.003832 -0.021550
v 0.028758 0.000028 -0.026785
v 0.028758 0.000028 -0.033257
v 0.028758 0.003832 -0.038493
v 0.020381 0.009987 0.047113
v 0.020381 0.016142 0.049113
v 0.020381 0.019946 0.054349
v 0.020381 0.019946 0.060820
v 0.020381 0.016142 0.066056
v 0.020381 0.009987 0.068056
v 0.020381 0.003832 0.066056
v 0.020381 0.000028 0.060820
v 0.020381 0.000028 0.054349
v 0.020381 0.003832 0.049113
v 0.028758 0.009987 0.047113
v 0.028758 0.016142 0.049113
v 0.028758 0.019946 0.054349
v 0.028758 0.019946 0.060820
v 0.028758 0.016142 0.066056
v 0.028758 0.009987 0.068056
v 0.028758 0.003832 0.066056
v 0.028758 0.000028 0.060820
v 0.028758 0.000028 0.054349
v 0.028758 0.003832 0.049113
vt 0.260664 0.612906
vt 0.395877 0.612906
vt 0.395877 0.662239
vt 0.260664 0.662239
vt 0.279015 0.456311
vt 0.279015 0.456311
vt 0.279015 0.456311
vt 0.279015 0.456312
vt 0.279015 0.456312
vt 0.279015 0.456312
vt 0.279016 0.456311
vt 0.279017 0.456311
vt 0.279017 0.456311
vt 0.279016 0.456312
vt 0.120022 0.613441
vt 0.255464 0.613441
vt 0.255464 0.662469
vt 0.120022 0.662469
vt 0.279015 0.456311
vt 0.279015 0.456311
vt 0.279015 0.456311
vt 0.279015 0.456312
vt 0.279016 0.456312
vt 0.279016 0.456312
vt 0.279015 0.456312
vt 0.279017 0.456311
vt 0.279017 0.456311
vt 0.279017 0.456312
vt 0.279017 0.456312
vt 0.279018 0.456312
vt 0.044177 0.426890
vt 0.044177 0.426891
vt 0.044176 0.426891
vt 0.044176 0.426893
vt 0.044170 0.426893
vt 0.044170 0.426891
vt 0.044169 0.426891
vt 0.044169 0.426890
vt 0.044171 0.426894
vt 0.044170 0.426894
vt 0.044170 0.426899
vt 0.044170 0.426894
vt 0.044170 0.426899
vt 0.044171 0.426899
vt 0.044171 0.426894
vt 0.044170 0.426894
vt 0.044170 0.426899
vt 0.044171 0.426899
vt 0.044171 0.426894
vt 0.044170 0.426894
vt 0.044170 0.426899
vt 0.044176 0.426894
vt 0.044176 0.426899
vt 0.044177 0.426894
vt 0.044177 0.426899
vt 0.044178 0.426894
vt 0.044178 0.426899
vt 0.044176 0.426894
vt 0.044175 0.426894
vt 0.044175 0.426899
vt 0.044176 0.426899
vt 0.044177 0.426894
vt 0.044177 0.426899
vt 0.044178 0.426894
vt 0.044178 0.426899
vt 0.044176 0.426894
vt 0.044175 0.426894
vt 0.044175 0.426899
vt 0.044176 0.426899
vt 0.044177 0.426894
vt 0.044177 0.426899
vt 0.044178 0.426894
vt 0.044178 0.426899
vt 0.044176 0.426894
vt 0.044175 0.426894
vt 0.044176 0.426899
vt 0.044177 0.426894
vt 0.044177 0.426899
vt 0.044178 0.426894
vt 0.044178 0.426899
vt 0.044169 0.426890
vt 0.044177 0.426890
vt 0.044177 0.426895
vt 0.044169 0.426895
vt 0.044169 0.426890
vt 0.044177 0.426890
vt 0.044177 0.426895
vt 0.044169 0.426895
vt 0.044169 0.426890
vt 0.044177 0.426890
vt 0.044177 0.426895
vt 0.044169 0.426895
vt 0.044169 0.426890
vt 0.044177 0.426890
vt 0.044177 0.426895
vt 0.044169 0.426895
vt 0.044731 0.427234
vt 0.044731 0.427231
vt 0.044735 0.427231
vt 0.044735 0.427234
vt 0.044731 0.427234
vt 0.044731 0.427231
vt 0.044735 0.427231
vt 0.044735 0.427234
vt 0.044177 0.426895
vt 0.044177 0.426890
vt 0.044177 0.426890
vt 0.044177 0.426895
vt 0.044177 0.426895
vt 0.044177 0.426890
vt 0.044177 0.426890
vt 0.044177 0.426895
vt 0.073107 0.485881
vt 0.073107 0.485876
vt 0.073107 0.485876
vt 0.073107 0.485881
vt 0.073107 0.485881
vt 0.073107 0.485881
vt 0.073107 0.485876
vt 0.073107 0.485876
vt 0.044177 0.426899
vt 0.044169 0.426899
vt 0.279179 0.456332
vt 0.279179 0.456328
vt 0.279179 0.456328
vt 0.279179 0.456332
vt 0.279179 0.456332
vt 0.279179 0.456328
vt 0.279179 0.456328
vt 0.279179 0.456332
vt 0.073781 0.456128
vt 0.073781 0.456128
vt 0.073781 0.456123
vt 0.073781 0.456123
vt 0.279179 0.456332
vt 0.279179 0.456328
vt 0.279179 0.456328
vt 0.279179 0.456332
vt 0.279179 0.456332
vt 0.279179 0.456328
vt 0.279179 0.456328
vt 0.279179 0.456332
vt 0.073781 0.456128
vt 0.073781 0.456128
vt 0.073781 0.456123
vt 0.073781 0.456123
vt 0.279015 0.456311
vt 0.279018 0.456311
vt 0.279018 0.456312
vt 0.279015 0.456312
vt 0.279018 0.456313
vt 0.279015 0.456313
vt 0.070507 0.758534
vt 0.114428 0.813200
vt 0.114428 0.758664
vt 0.070507 0.813199
vt 0.070507 0.758530
vt 0.070507 0.758534
vt 0.114427 0.813200
vt 0.114427 0.758672
vt 0.070507 0.813199
vt 0.070507 0.758530
vt 0.178845 0.760765
vt 0.178796 0.813991
vt 0.115833 0.813991
vt 0.115886 0.760534
vt 0.178845 0.760765
vt 0.178796 0.813991
vt 0.115833 0.813991
vt 0.115886 0.760534
vt 0.279181 0.456329
vt 0.279181 0.456396
vt 0.279101 0.456396
vt 0.279101 0.456329
vt 0.279016 0.456311
vt 0.279016 0.456311
vt 0.279017 0.456312
vt 0.279017 0.456312
vt 0.279017 0.456311
vt 0.279017 0.456311
vt 0.279018 0.456311
vt 0.044177 0.426895
vt 0.044177 0.426890
vt 0.044177 0.426890
vt 0.044177 0.426895
vt 0.044177 0.426895
vt 0.044177 0.426890
vt 0.044177 0.426890
vt 0.044177 0.426895
vt 0.114427 0.758674
vt 0.114428 0.758668
vt 0.279017 0.456312
vt 0.279017 0.456311
vt 0.279017 0.456311
vt 0.279018 0.456311
vt 0.279018 0.456312
vt 0.279017 0.456312
vt 0.279017 0.456312
vt 0.279016 0.456312
vt 0.279016 0.456312
vt 0.050270 0.660420
vt 0.050277 0.660415
vt 0.050285 0.660415
vt 0.050292 0.660420
vt 0.050294 0.660427
vt 0.050292 0.660435
vt 0.050285 0.660440
vt 0.050277 0.660440
vt 0.050270 0.660435
vt 0.050268 0.660427
vt 0.050295 0.660445
vt 0.050291 0.660445
vt 0.050298 0.660445
vt 0.050270 0.660445
vt 0.050273 0.660445
vt 0.050276 0.660445
vt 0.050279 0.660445
vt 0.050282 0.660445
vt 0.050285 0.660445
vt 0.050288 0.660445
vt 0.617580 0.816102
vt 0.606966 0.783435
vt 0.617580 0.750768
vt 0.645368 0.730579
vt 0.679716 0.730579
vt 0.707504 0.750768
vt 0.718118 0.783435
vt 0.707504 0.816102
vt 0.679716 0.836291
vt 0.645368 0.836291
vt 0.050270 0.660420
vt 0.050277 0.660415
vt 0.050285 0.660415
vt 0.050292 0.660420
vt 0.050294 0.660427
vt 0.050292 0.660435
vt 0.050285 0.660440
vt 0.050277 0.660440
vt 0.050270 0.660435
vt 0.050268 0.660427
vt 0.050295 0.660445
vt 0.050291 0.660445
vt 0.050298 0.660445
vt 0.050270 0.660445
vt 0.050273 0.660445
vt 0.050276 0.660445
vt 0.050279 0.660445
vt 0.050282 0.660445
vt 0.050285 0.660445
vt 0.050288 0.660445
vt 0.617580 0.816102
vt 0.606966 0.783435
vt 0.617580 0.750768
vt 0.645368 0.730579
vt 0.679716 0.730579
vt 0.707504 0.750768
vt 0.718118 0.783435
vt 0.707504 0.816102
vt 0.679716 0.836291
vt 0.645368 0.836291
vt 0.050270 0.660420
vt 0.050277 0.660415
vt 0.050285 0.660415
vt 0.050292 0.660420
vt 0.050294 0.660427
vt 0.050292 0.660435
vt 0.050285 0.660440
vt 0.050277 0.660440
vt 0.050270 0.660435
vt 0.050268 0.660427
vt 0.050295 0.660445
vt 0.050291 0.660445
vt 0.050298 0.660445
vt 0.050270 0.660445
vt 0.050273 0.660445
vt 0.050276 0.660445
vt 0.050279 0.660445
vt 0.050282 0.660445
vt 0.050285 0.660445
vt 0.050288 0.660445
vt 0.617580 0.816102
vt 0.606966 0.783435
vt 0.617580 0.750768
vt 0.645368 0.730579
vt 0.679716 0.730579
vt 0.707504 0.750768
vt 0.718118 0.783435
vt 0.707504 0.816102
vt 0.679716 0.836291
vt 0.645368 0.836291
vt 0.050270 0.660420
vt 0.050277 0.660415
vt 0.050285 0.660415
vt 0.050292 0.660420
vt 0.050294 0.660427
vt 0.050292 0.660435
vt 0.050285 0.660440
vt 0.050277 0.660440
vt 0.050270 0.660435
vt 0.050268 0.660427
vt 0.050295 0.660445
vt 0.050291 0.660445
vt 0.050298 0.660445
vt 0.050270 0.660445
vt 0.050273 0.660445
vt 0.050276 0.660445
vt 0.050279 0.660445
vt 0.050282 0.660445
vt 0.050285 0.660445
vt 0.050288 0.660445
vt 0.617580 0.816102
vt 0.606966 0.783435
vt 0.617580 0.750768
vt 0.645368 0.730579
vt 0.679716 0.730579
vt 0.707504 0.750768
vt 0.718118 0.783435
vt 0.707504 0.816102
vt 0.679716 0.836291
vt 0.645368 0.836291
vn 0.0000 0.2239 -0.9746
vn -1.0000 -0.0000 -0.0000
vn -0.0000 0.4300 0.9028
vn 1.0000 -0.0000 0.0000
vn -0.0000 0.9953 0.0966
vn 0.0000 -1.0000 0.0000
vn 0.0000 -0.3090 -0.9511
vn 0.0000 -0.5878 -0.8090
vn -0.0000 -0.3090 0.9511
vn -0.0000 -0.5878 0.8090
vn -0.0000 -0.9511 0.3090
vn -0.0000 -0.9511 -0.3090
vn -0.0000 0.0000 1.0000
vn 0.0000 1.0000 0.0000
vn 0.0000 0.0000 -1.0000
vn -0.0000 1.0000 0.0001
vn 0.0000 1.0000 -0.0001
vn -0.9214 0.3887 0.0001
vn -0.9214 0.3887 0.0000
vn -0.9213 0.3888 0.0000
vn -0.9214 0.3886 -0.0000
vn 0.9214 0.3886 -0.0000
vn 0.9214 0.3887 0.0000
vn 0.9214 0.3887 0.0001
vn -0.0000 0.6628 0.7488
vn 0.0000 0.7191 -0.6949
vn 0.0000 1.0000 -0.0063
vn 0.9213 0.3888 0.0000
vn -0.0000 0.5878 0.8090
vn -0.0000 0.9511 0.3090
vn -0.0000 0.9511 -0.3090
vn 0.0000 0.5878 -0.8090
usemtl 14_-_Default
s 1
f 1/1/1 2/2/1 124/3/1 123/4/1
f 2/5/2 18/6/2 19/7/2 20/8/2 122/9/2 124/10/2
f 3/11/2 10/12/2 11/13/2 117/14/2
f 6/15/3 5/16/3 8/17/3 7/18/3
f 5/19/4 31/20/4 32/21/4 34/22/4 35/23/4 119/24/4 8/25/4
f 23/26/4 24/27/4 120/28/4
f 118/29/5 7/30/5 8/25/5 119/24/5
f 1/31/6 29/32/6 30/33/6 25/34/6 22/35/6 17/36/6 18/37/6 2/38/6
f 22/35/7 3/39/7 110/40/8 45/41/8
f 30/33/9 29/32/9 28/42/10 49/43/10
f 16/44/7 15/45/7 14/46/8 41/47/8
f 37/48/9 4/49/9 36/50/10 53/51/10
f 19/52/10 18/37/9 17/36/9 42/53/10
f 20/54/11 19/52/10 42/53/10 43/55/11
f 21/56/12 20/54/11 43/55/11 44/57/12
f 110/40/8 21/56/12 44/57/12 45/41/8
f 11/58/10 10/59/9 9/60/9 38/61/10
f 12/62/11 11/58/10 38/61/10 39/63/11
f 13/64/12 12/62/11 39/63/11 40/65/12
f 14/46/8 13/64/12 40/65/12 41/47/8
f 32/66/8 31/67/7 33/68/7 50/69/8
f 34/70/12 32/66/8 50/69/8 51/71/12
f 35/72/11 34/70/12 51/71/12 52/73/11
f 36/50/10 35/72/11 52/73/11 53/51/10
f 24/74/8 23/75/7 25/34/7 46/76/8
f 26/77/12 24/74/8 46/76/8 47/78/12
f 27/79/11 26/77/12 47/78/12 48/80/11
f 28/42/10 27/79/11 48/80/11 49/43/10
f 54/81/13 55/82/13 56/83/13 57/84/13
f 55/82/6 54/81/6 58/85/6 59/86/6
f 56/83/4 55/82/4 59/86/4 60/87/4
f 57/84/14 56/83/14 60/87/14 61/88/14
f 54/81/2 57/84/2 61/88/2 58/85/2
f 58/85/15 61/88/15 60/87/15 59/86/15
f 62/89/13 63/90/13 64/91/13 65/92/13
f 63/90/6 62/89/6 66/93/6 67/94/6
f 64/91/4 63/90/4 67/94/4 68/95/4
f 65/92/14 64/91/14 68/95/14 69/96/14
f 62/89/2 65/92/2 69/96/2 66/93/2
f 66/93/15 69/96/15 68/95/15 67/94/15
f 25/34/6 23/75/6 4/49/6 37/48/6 9/60/6 10/59/6 3/39/6 22/35/6
f 72/97/4 70/98/4 71/99/4 73/100/4
f 76/101/2 74/102/2 75/103/2 77/104/2
f 78/105/4 79/106/4 80/107/4 81/108/4
f 82/109/2 83/110/2 84/111/2 85/112/2
f 86/113/4 87/114/4 88/115/4 89/116/4
f 90/117/2 93/118/2 92/119/2 91/120/2
f 37/48/6 33/68/6 31/67/6 5/121/6 6/122/6 15/45/6 16/44/6 9/60/6
f 94/123/13 95/124/13 96/125/13 97/126/13
f 95/124/2 94/123/2 98/127/2 99/128/2
f 96/125/6 95/124/6 99/128/6 100/129/6
f 97/126/4 96/125/4 100/129/4 101/130/4
f 94/123/14 97/126/14 101/130/14 98/127/14
f 98/131/15 101/132/15 100/133/15 99/134/15
f 102/135/13 103/136/13 104/137/13 105/138/13
f 103/136/2 102/135/2 106/139/2 107/140/2
f 104/137/6 103/136/6 107/140/6 108/141/6
f 105/138/4 104/137/4 108/141/4 109/142/4
f 102/135/14 105/138/14 109/142/14 106/139/14
f 106/143/15 109/144/15 108/145/15 107/146/15
f 115/147/16 116/148/16 112/149/14 111/150/14
f 111/150/14 112/149/14 114/151/17 113/152/17
f 122/153/18 112/154/19 116/155/20
f 117/156/19 118/157/21 112/154/19
f 119/158/22 111/159/23 113/160/22
f 120/161/23 121/162/24 111/159/23
f 114/163/25 118/164/25 119/165/25 113/166/25
f 115/167/26 121/168/26 122/169/26 116/170/26
f 122/171/27 121/172/27 123/173/27 124/174/27
f 35/23/4 36/175/4 120/28/4 119/24/4
f 36/175/4 4/176/4 23/26/4 120/28/4
f 12/177/2 13/178/2 14/179/2 15/180/2 6/181/2 7/30/2 118/29/2
f 11/13/2 12/177/2 118/29/2 117/14/2
f 125/182/4 126/183/4 127/184/4 128/185/4
f 129/186/2 130/187/2 131/188/2 132/189/2
f 122/153/18 117/156/19 112/154/19
f 121/162/24 115/190/28 111/159/23
f 118/157/21 114/191/21 112/154/19
f 119/158/22 120/161/23 111/159/23
f 27/192/4 28/193/4 29/194/4 1/195/4 123/196/4 121/197/4
f 26/198/4 27/192/4 121/197/4
f 21/199/2 117/14/2 122/9/2
f 20/8/2 21/199/2 122/9/2
f 21/199/2 110/200/2 117/14/2
f 26/198/4 121/197/4 120/28/4
f 24/27/4 26/198/4 120/28/4
f 110/200/2 3/11/2 117/14/2
f 142/201/4 141/202/4 140/203/4 139/204/4 138/205/4 137/206/4 136/207/4 135/208/4 134/209/4 133/210/4
f 133/210/13 134/209/29 144/211/29 143/212/13
f 134/209/29 135/208/30 145/213/30 144/211/29
f 135/208/30 136/207/31 146/214/31 145/213/30
f 136/207/31 137/206/32 147/215/32 146/214/31
f 137/206/32 138/205/15 148/216/15 147/215/32
f 138/205/15 139/204/8 149/217/8 148/216/15
f 139/204/8 140/203/12 150/218/12 149/217/8
f 140/203/12 141/202/11 151/219/11 150/218/12
f 141/202/11 142/201/10 152/220/10 151/219/11
f 142/201/10 133/210/13 143/212/13 152/220/10
f 152/221/2 143/222/2 144/223/2 145/224/2 146/225/2 147/226/2 148/227/2 149/228/2 150/229/2 151/230/2
f 162/231/4 161/232/4 160/233/4 159/234/4 158/235/4 157/236/4 156/237/4 155/238/4 154/239/4 153/240/4
f 153/240/13 154/239/29 164/241/29 163/242/13
f 154/239/29 155/238/30 165/243/30 164/241/29
f 155/238/30 156/237/31 166/244/31 165/243/30
f 156/237/31 157/236/32 167/245/32 166/244/31
f 157/236/32 158/235/15 168/246/15 167/245/32
f 158/235/15 159/234/8 169/247/8 168/246/15
f 159/234/8 160/233/12 170/248/12 169/247/8
f 160/233/12 161/232/11 171/249/11 170/248/12
f 161/232/11 162/231/10 172/250/10 171/249/11
f 162/231/10 153/240/13 163/242/13 172/250/10
f 172/251/2 163/252/2 164/253/2 165/254/2 166/255/2 167/256/2 168/257/2 169/258/2 170/259/2 171/260/2
f 182/261/2 181/262/2 180/263/2 179/264/2 178/265/2 177/266/2 176/267/2 175/268/2 174/269/2 173/270/2
f 173/270/15 174/269/32 184/271/32 183/272/15
f 174/269/32 175/268/31 185/273/31 184/271/32
f 175/268/31 176/267/30 186/274/30 185/273/31
f 176/267/30 177/266/29 187/275/29 186/274/30
f 177/266/29 178/265/13 188/276/13 187/275/29
f 178/265/13 179/264/10 189/277/10 188/276/13
f 179/264/10 180/263/11 190/278/11 189/277/10
f 180/263/11 181/262/12 191/279/12 190/278/11
f 181/262/12 182/261/8 192/280/8 191/279/12
f 182/261/8 173/270/15 183/272/15 192/280/8
f 192/281/4 183/282/4 184/283/4 185/284/4 186/285/4 187/286/4 188/287/4 189/288/4 190/289/4 191/290/4
f 202/291/2 201/292/2 200/293/2 199/294/2 198/295/2 197/296/2 196/297/2 195/298/2 194/299/2 193/300/2
f 193/300/15 194/299/32 204/301/32 203/302/15
f 194/299/32 195/298/31 205/303/31 204/301/32
f 195/298/31 196/297/30 206/304/30 205/303/31
f 196/297/30 197/296/29 207/305/29 206/304/30
f 197/296/29 198/295/13 208/306/13 207/305/29
f 198/295/13 199/294/10 209/307/10 208/306/13
f 199/294/10 200/293/11 210/308/11 209/307/10
f 200/293/11 201/292/12 211/309/12 210/308/11
f 201/292/12 202/291/8 212/310/8 211/309/12
f 202/291/8 193/300/15 203/302/15 212/310/8
f 212/311/4 203/312/4 204/313/4 205/314/4 206/315/4 207/316/4 208/317/4 209/318/4 210/319/4 211/320/4
