# Blender v2.79 (sub 0) OBJ File: ''
# www.blender.org
mtllib Car8.mtl
o Box410
v 0.035273 0.005914 -0.077864
v -0.027554 0.005914 -0.077864
v -0.027554 0.005914 -0.034134
v 0.035273 0.005914 0.028023
v 0.035273 0.005914 0.078456
v -0.027554 0.005914 0.078455
v -0.027554 0.023754 0.069959
v 0.035273 0.023754 0.069959
v -0.015665 0.005914 0.028023
v -0.027554 0.005914 0.028023
v -0.027554 0.013274 0.030414
v -0.027554 0.017859 0.036725
v -0.027554 0.017859 0.044525
v -0.027554 0.013274 0.050836
v -0.027554 0.005914 0.053227
v -0.015665 0.005914 0.053227
v -0.015668 0.005914 -0.059339
v -0.027554 0.005914 -0.059339
v -0.027554 0.013274 -0.056948
v -0.027554 0.017859 -0.050637
v -0.027554 0.017859 -0.042836
v -0.015668 0.005914 -0.034134
v 0.035273 0.005914 -0.034134
v 0.035273 0.013274 -0.036526
v 0.023475 0.005914 -0.034134
v 0.035273 0.017859 -0.042836
v 0.035273 0.017859 -0.050637
v 0.035273 0.013274 -0.056948
v 0.035273 0.005914 -0.059339
v 0.023475 0.005914 -0.059339
v 0.035273 0.005914 0.053227
v 0.035273 0.013274 0.050836
v 0.023471 0.005914 0.053227
v 0.035273 0.017859 0.044525
v 0.035273 0.017859 0.036725
v 0.035273 0.013274 0.030414
v 0.023471 0.005914 0.028023
v -0.015665 0.013274 0.030414
v -0.015665 0.017859 0.036725
v -0.015665 0.017859 0.044525
v -0.015665 0.013274 0.050836
v -0.015668 0.013274 -0.056948
v -0.015668 0.017859 -0.050637
v -0.015668 0.017859 -0.042836
v -0.015668 0.013274 -0.036526
v 0.023475 0.013274 -0.036526
v 0.023475 0.017859 -0.042836
v 0.023475 0.017859 -0.050637
v 0.023475 0.013274 -0.056948
v 0.023471 0.013274 0.050836
v 0.023471 0.017859 0.044525
v 0.023471 0.017859 0.036725
v 0.023471 0.013274 0.030414
v -0.029438 0.004856 0.079215
v 0.037157 0.004856 0.079215
v 0.037157 0.010387 0.079215
v -0.029438 0.010387 0.079215
v -0.029438 0.004856 0.073496
v 0.037157 0.004856 0.073496
v 0.037157 0.010387 0.073496
v -0.029438 0.010387 0.073496
v -0.029438 0.005430 -0.073305
v 0.037157 0.005430 -0.073305
v 0.037157 0.010960 -0.073305
v -0.029438 0.010960 -0.073305
v -0.029438 0.005430 -0.079024
v 0.037157 0.005430 -0.079024
v 0.037157 0.010960 -0.079024
v -0.029438 0.010960 -0.079024
v 0.023473 0.005914 0.056706
v 0.023469 0.005914 -0.063612
v 0.023473 0.021826 0.049455
v 0.023469 0.021826 -0.057975
v -0.015668 0.005914 -0.063612
v -0.015668 0.005914 0.056706
v -0.015668 0.021826 -0.057975
v -0.015668 0.021826 0.049455
v 0.035417 0.023408 0.004367
v 0.035417 0.021316 0.004367
v 0.035417 0.021316 -0.002043
v 0.035417 0.023408 -0.002043
v -0.027698 0.023408 -0.002043
v -0.027698 0.021316 -0.002043
v -0.027698 0.021316 0.004367
v -0.027698 0.023408 0.004367
v 0.035417 0.020747 0.071359
v 0.035417 0.018655 0.072397
v 0.035417 0.018655 -0.074941
v 0.035417 0.020747 -0.074411
v -0.027706 0.020747 0.071359
v -0.027706 0.018655 0.072397
v -0.027706 0.018655 -0.074941
v -0.027706 0.020747 -0.074411
v 0.035910 0.031943 0.035419
v 0.035910 0.026413 0.035419
v 0.042948 0.026413 0.035419
v 0.042948 0.031943 0.035419
v 0.035910 0.031943 0.034639
v 0.035910 0.026413 0.034639
v 0.042948 0.026413 0.034639
v 0.042948 0.031943 0.034639
v -0.035369 0.031943 0.035419
v -0.035369 0.026413 0.035419
v -0.028332 0.026413 0.035419
v -0.028332 0.031943 0.035419
v -0.035369 0.031943 0.034639
v -0.035369 0.026413 0.034639
v -0.028332 0.026413 0.034639
v -0.028332 0.031943 0.034639
v -0.027554 0.013274 -0.036526
v 0.028202 0.043757 -0.005314
v -0.020483 0.043757 -0.005314
v 0.028202 0.043760 0.021730
v -0.020483 0.043760 0.021730
v 0.028202 0.043760 -0.032593
v -0.020483 0.043760 -0.032593
v -0.027554 0.026993 -0.005314
v -0.027554 0.026993 0.036571
v 0.035273 0.026993 0.036571
v 0.035273 0.026993 -0.005314
v 0.035273 0.027002 -0.049933
v -0.027554 0.027002 -0.049936
v 0.035273 0.026857 -0.073053
v -0.027554 0.026857 -0.073053
v 0.035417 0.023408 -0.031062
v 0.035417 0.021316 -0.031062
v 0.035417 0.021316 -0.037472
v 0.035417 0.023408 -0.037472
v -0.027698 0.023408 -0.037472
v -0.027698 0.021316 -0.037472
v -0.027698 0.021316 -0.031062
v -0.027698 0.023408 -0.031062
v -0.018356 0.005840 0.051116
v -0.018356 0.011995 0.049116
v -0.018356 0.015798 0.043881
v -0.018356 0.015798 0.037409
v -0.018356 0.011995 0.032173
v -0.018356 0.005840 0.030174
v -0.018356 -0.000315 0.032173
v -0.018356 -0.004119 0.037409
v -0.018356 -0.004119 0.043881
v -0.018356 -0.000315 0.049116
v -0.026733 0.005840 0.051116
v -0.026733 0.011995 0.049116
v -0.026733 0.015798 0.043881
v -0.026733 0.015798 0.037409
v -0.026733 0.011995 0.032173
v -0.026733 0.005840 0.030174
v -0.026733 -0.000315 0.032173
v -0.026733 -0.004119 0.037409
v -0.026733 -0.004119 0.043881
v -0.026733 -0.000315 0.049116
v -0.018356 0.005840 -0.036489
v -0.018356 0.011995 -0.038489
v -0.018356 0.015798 -0.043725
v -0.018356 0.015798 -0.050196
v -0.018356 0.011995 -0.055432
v -0.018356 0.005840 -0.057432
v -0.018356 -0.000315 -0.055432
v -0.018356 -0.004119 -0.050196
v -0.018356 -0.004119 -0.043725
v -0.018356 -0.000315 -0.038489
v -0.026733 0.005840 -0.036489
v -0.026733 0.011995 -0.038489
v -0.026733 0.015798 -0.043725
v -0.026733 0.015798 -0.050196
v -0.026733 0.011995 -0.055432
v -0.026733 0.005840 -0.057432
v -0.026733 -0.000315 -0.055432
v -0.026733 -0.004119 -0.050196
v -0.026733 -0.004119 -0.043725
v -0.026733 -0.000315 -0.038489
v 0.026028 0.005840 -0.057432
v 0.026028 0.011995 -0.055432
v 0.026028 0.015798 -0.050196
v 0.026028 0.015798 -0.043725
v 0.026028 0.011995 -0.038489
v 0.026028 0.005840 -0.036489
v 0.026028 -0.000315 -0.038489
v 0.026028 -0.004119 -0.043725
v 0.026028 -0.004119 -0.050196
v 0.026028 -0.000315 -0.055432
v 0.034405 0.005840 -0.057432
v 0.034405 0.011995 -0.055432
v 0.034405 0.015798 -0.050196
v 0.034405 0.015798 -0.043725
v 0.034405 0.011995 -0.038489
v 0.034405 0.005840 -0.036489
v 0.034405 -0.000315 -0.038489
v 0.034405 -0.004119 -0.043725
v 0.034405 -0.004119 -0.050196
v 0.034405 -0.000315 -0.055432
v 0.026028 0.005840 0.030174
v 0.026028 0.011995 0.032173
v 0.026028 0.015798 0.037409
v 0.026028 0.015798 0.043881
v 0.026028 0.011995 0.049116
v 0.026028 0.005840 0.051116
v 0.026028 -0.000315 0.049116
v 0.026028 -0.004119 0.043881
v 0.026028 -0.004119 0.037409
v 0.026028 -0.000315 0.032173
v 0.034405 0.005840 0.030174
v 0.034405 0.011995 0.032173
v 0.034405 0.015798 0.037409
v 0.034405 0.015798 0.043881
v 0.034405 0.011995 0.049116
v 0.034405 0.005840 0.051116
v 0.034405 -0.000315 0.049116
v 0.034405 -0.004119 0.043881
v 0.034405 -0.004119 0.037409
v 0.034405 -0.000315 0.032173
vt 0.260664 0.612906
vt 0.395877 0.612906
vt 0.395877 0.662239
vt 0.260664 0.662239
vt 0.073562 0.397396
vt 0.073562 0.397396
vt 0.073562 0.397397
vt 0.073562 0.397397
vt 0.073562 0.397398
vt 0.073562 0.397398
vt 0.073563 0.397396
vt 0.073564 0.397396
vt 0.073564 0.397397
vt 0.073563 0.397398
vt 0.120022 0.613441
vt 0.255464 0.613441
vt 0.255464 0.662469
vt 0.120022 0.662469
vt 0.073562 0.397396
vt 0.073562 0.397396
vt 0.073562 0.397397
vt 0.073562 0.397397
vt 0.073562 0.397397
vt 0.073563 0.397398
vt 0.073562 0.397398
vt 0.073564 0.397396
vt 0.073564 0.397397
vt 0.073563 0.397398
vt 0.073563 0.397398
vt 0.073564 0.397398
vt 0.044177 0.426890
vt 0.044177 0.426891
vt 0.044176 0.426891
vt 0.044176 0.426893
vt 0.044170 0.426893
vt 0.044170 0.426891
vt 0.044169 0.426891
vt 0.044169 0.426890
vt 0.044171 0.426894
vt 0.044170 0.426894
vt 0.044170 0.426899
vt 0.044170 0.426894
vt 0.044170 0.426899
vt 0.044171 0.426899
vt 0.044171 0.426894
vt 0.044170 0.426894
vt 0.044170 0.426899
vt 0.044171 0.426899
vt 0.044171 0.426894
vt 0.044170 0.426894
vt 0.044170 0.426899
vt 0.044176 0.426894
vt 0.044176 0.426899
vt 0.044177 0.426894
vt 0.044177 0.426899
vt 0.044178 0.426894
vt 0.044178 0.426899
vt 0.044176 0.426894
vt 0.044175 0.426894
vt 0.044175 0.426899
vt 0.044176 0.426899
vt 0.044177 0.426894
vt 0.044177 0.426899
vt 0.044178 0.426894
vt 0.044178 0.426899
vt 0.044176 0.426894
vt 0.044175 0.426894
vt 0.044175 0.426899
vt 0.044176 0.426899
vt 0.044177 0.426894
vt 0.044177 0.426899
vt 0.044178 0.426894
vt 0.044178 0.426899
vt 0.044176 0.426894
vt 0.044175 0.426894
vt 0.044176 0.426899
vt 0.044177 0.426894
vt 0.044177 0.426899
vt 0.044178 0.426894
vt 0.044178 0.426899
vt 0.044169 0.426890
vt 0.044177 0.426890
vt 0.044177 0.426895
vt 0.044169 0.426895
vt 0.044169 0.426890
vt 0.044177 0.426890
vt 0.044177 0.426895
vt 0.044169 0.426895
vt 0.044169 0.426890
vt 0.044177 0.426890
vt 0.044177 0.426895
vt 0.044169 0.426895
vt 0.044169 0.426890
vt 0.044177 0.426890
vt 0.044177 0.426895
vt 0.044169 0.426895
vt 0.044731 0.427234
vt 0.044731 0.427231
vt 0.044735 0.427231
vt 0.044735 0.427234
vt 0.044731 0.427234
vt 0.044731 0.427231
vt 0.044735 0.427231
vt 0.044735 0.427234
vt 0.044177 0.426895
vt 0.044177 0.426890
vt 0.044177 0.426890
vt 0.044177 0.426895
vt 0.044177 0.426895
vt 0.044177 0.426890
vt 0.044177 0.426890
vt 0.044177 0.426895
vt 0.073107 0.485881
vt 0.073107 0.485876
vt 0.073107 0.485876
vt 0.073107 0.485881
vt 0.073107 0.485881
vt 0.073107 0.485881
vt 0.073107 0.485876
vt 0.073107 0.485876
vt 0.044177 0.426899
vt 0.044169 0.426899
vt 0.073726 0.397417
vt 0.073726 0.397413
vt 0.073726 0.397413
vt 0.073726 0.397417
vt 0.073726 0.397417
vt 0.073726 0.397413
vt 0.073726 0.397413
vt 0.073726 0.397417
vt 0.073781 0.456128
vt 0.073781 0.456128
vt 0.073781 0.456123
vt 0.073781 0.456123
vt 0.073726 0.397417
vt 0.073726 0.397413
vt 0.073726 0.397413
vt 0.073726 0.397417
vt 0.073726 0.397417
vt 0.073726 0.397413
vt 0.073726 0.397413
vt 0.073726 0.397417
vt 0.073781 0.456128
vt 0.073781 0.456128
vt 0.073781 0.456123
vt 0.073781 0.456123
vt 0.073562 0.397396
vt 0.073564 0.397396
vt 0.073564 0.397397
vt 0.073562 0.397397
vt 0.073564 0.397398
vt 0.073562 0.397398
vt 0.070507 0.758534
vt 0.114428 0.813200
vt 0.114428 0.758664
vt 0.070507 0.813199
vt 0.070507 0.758530
vt 0.070507 0.758534
vt 0.114427 0.813200
vt 0.114427 0.758672
vt 0.070507 0.813199
vt 0.070507 0.758530
vt 0.178845 0.760765
vt 0.178796 0.813991
vt 0.115833 0.813991
vt 0.115886 0.760534
vt 0.178845 0.760765
vt 0.178796 0.813991
vt 0.115833 0.813991
vt 0.115886 0.760534
vt 0.073728 0.397415
vt 0.073728 0.397481
vt 0.073648 0.397481
vt 0.073562 0.397397
vt 0.073563 0.397396
vt 0.073564 0.397397
vt 0.073564 0.397397
vt 0.073564 0.397397
vt 0.073564 0.397396
vt 0.073564 0.397396
vt 0.044177 0.426895
vt 0.044177 0.426890
vt 0.044177 0.426890
vt 0.044177 0.426895
vt 0.044177 0.426895
vt 0.044177 0.426890
vt 0.044177 0.426890
vt 0.044177 0.426895
vt 0.114427 0.758674
vt 0.114428 0.758668
vt 0.073564 0.397397
vt 0.073564 0.397397
vt 0.073564 0.397396
vt 0.073564 0.397396
vt 0.073564 0.397398
vt 0.073564 0.397398
vt 0.073564 0.397397
vt 0.073562 0.397397
vt 0.073562 0.397397
vt 0.050270 0.660420
vt 0.050277 0.660415
vt 0.050285 0.660415
vt 0.050292 0.660420
vt 0.050294 0.660427
vt 0.050292 0.660435
vt 0.050285 0.660440
vt 0.050277 0.660440
vt 0.050270 0.660435
vt 0.050268 0.660427
vt 0.050295 0.660445
vt 0.050291 0.660445
vt 0.050298 0.660445
vt 0.050270 0.660445
vt 0.050273 0.660445
vt 0.050276 0.660445
vt 0.050279 0.660445
vt 0.050282 0.660445
vt 0.050285 0.660445
vt 0.050288 0.660445
vt 0.617580 0.816102
vt 0.606966 0.783435
vt 0.617580 0.750768
vt 0.645368 0.730579
vt 0.679716 0.730579
vt 0.707504 0.750768
vt 0.718118 0.783435
vt 0.707504 0.816102
vt 0.679716 0.836291
vt 0.645368 0.836291
vt 0.050270 0.660420
vt 0.050277 0.660415
vt 0.050285 0.660415
vt 0.050292 0.660420
vt 0.050294 0.660427
vt 0.050292 0.660435
vt 0.050285 0.660440
vt 0.050277 0.660440
vt 0.050270 0.660435
vt 0.050268 0.660427
vt 0.050295 0.660445
vt 0.050291 0.660445
vt 0.050298 0.660445
vt 0.050270 0.660445
vt 0.050273 0.660445
vt 0.050276 0.660445
vt 0.050279 0.660445
vt 0.050282 0.660445
vt 0.050285 0.660445
vt 0.050288 0.660445
vt 0.617580 0.816102
vt 0.606966 0.783435
vt 0.617580 0.750768
vt 0.645368 0.730579
vt 0.679716 0.730579
vt 0.707504 0.750768
vt 0.718118 0.783435
vt 0.707504 0.816102
vt 0.679716 0.836291
vt 0.645368 0.836291
vt 0.050270 0.660420
vt 0.050277 0.660415
vt 0.050285 0.660415
vt 0.050292 0.660420
vt 0.050294 0.660427
vt 0.050292 0.660435
vt 0.050285 0.660440
vt 0.050277 0.660440
vt 0.050270 0.660435
vt 0.050268 0.660427
vt 0.050295 0.660445
vt 0.050291 0.660445
vt 0.050298 0.660445
vt 0.050270 0.660445
vt 0.050273 0.660445
vt 0.050276 0.660445
vt 0.050279 0.660445
vt 0.050282 0.660445
vt 0.050285 0.660445
vt 0.050288 0.660445
vt 0.617580 0.816102
vt 0.606966 0.783435
vt 0.617580 0.750768
vt 0.645368 0.730579
vt 0.679716 0.730579
vt 0.707504 0.750768
vt 0.718118 0.783435
vt 0.707504 0.816102
vt 0.679716 0.836291
vt 0.645368 0.836291
vt 0.050270 0.660420
vt 0.050277 0.660415
vt 0.050285 0.660415
vt 0.050292 0.660420
vt 0.050294 0.660427
vt 0.050292 0.660435
vt 0.050285 0.660440
vt 0.050277 0.660440
vt 0.050270 0.660435
vt 0.050268 0.660427
vt 0.050295 0.660445
vt 0.050291 0.660445
vt 0.050298 0.660445
vt 0.050270 0.660445
vt 0.050273 0.660445
vt 0.050276 0.660445
vt 0.050279 0.660445
vt 0.050282 0.660445
vt 0.050285 0.660445
vt 0.050288 0.660445
vt 0.617580 0.816102
vt 0.606966 0.783435
vt 0.617580 0.750768
vt 0.645368 0.730579
vt 0.679716 0.730579
vt 0.707504 0.750768
vt 0.718118 0.783435
vt 0.707504 0.816102
vt 0.679716 0.836291
vt 0.645368 0.836291
vn 0.0000 0.2239 -0.9746
vn -1.0000 -0.0000 -0.0000
vn -0.0000 0.4300 0.9028
vn 1.0000 -0.0000 0.0000
vn -0.0000 0.9953 0.0966
vn 0.0000 -1.0000 0.0000
vn 0.0000 -0.3090 -0.9511
vn 0.0000 -0.5878 -0.8090
vn -0.0000 -0.3090 0.9511
vn -0.0000 -0.5878 0.8090
vn -0.0000 -0.9511 0.3090
vn -0.0000 -0.9511 -0.3090
vn -0.0000 0.0000 1.0000
vn 0.0000 1.0000 0.0000
vn 0.0000 0.0000 -1.0000
vn -0.0000 1.0000 0.0001
vn 0.0000 1.0000 -0.0001
vn -0.9214 0.3887 0.0001
vn -0.9214 0.3887 0.0000
vn -0.9213 0.3888 0.0000
vn -0.9214 0.3886 -0.0000
vn 0.9214 0.3886 -0.0000
vn 0.9214 0.3887 0.0000
vn 0.9214 0.3887 0.0001
vn -0.0000 0.6628 0.7488
vn 0.0000 0.7191 -0.6949
vn 0.0000 1.0000 -0.0063
vn 0.9213 0.3888 0.0000
vn -0.0000 0.5878 0.8090
vn -0.0000 0.9511 0.3090
vn -0.0000 0.9511 -0.3090
vn 0.0000 0.5878 -0.8090
usemtl 14_-_Default.002
s 1
f 1/1/1 2/2/1 124/3/1 123/4/1
f 2/5/2 18/6/2 19/7/2 20/8/2 122/9/2 124/10/2
f 3/11/2 10/12/2 11/13/2 117/14/2
f 6/15/3 5/16/3 8/17/3 7/18/3
f 5/19/4 31/20/4 32/21/4 34/22/4 35/23/4 119/24/4 8/25/4
f 23/26/4 24/27/4 120/28/4
f 118/29/5 7/30/5 8/25/5 119/24/5
f 1/31/6 29/32/6 30/33/6 25/34/6 22/35/6 17/36/6 18/37/6 2/38/6
f 22/35/7 3/39/7 110/40/8 45/41/8
f 30/33/9 29/32/9 28/42/10 49/43/10
f 16/44/7 15/45/7 14/46/8 41/47/8
f 37/48/9 4/49/9 36/50/10 53/51/10
f 19/52/10 18/37/9 17/36/9 42/53/10
f 20/54/11 19/52/10 42/53/10 43/55/11
f 21/56/12 20/54/11 43/55/11 44/57/12
f 110/40/8 21/56/12 44/57/12 45/41/8
f 11/58/10 10/59/9 9/60/9 38/61/10
f 12/62/11 11/58/10 38/61/10 39/63/11
f 13/64/12 12/62/11 39/63/11 40/65/12
f 14/46/8 13/64/12 40/65/12 41/47/8
f 32/66/8 31/67/7 33/68/7 50/69/8
f 34/70/12 32/66/8 50/69/8 51/71/12
f 35/72/11 34/70/12 51/71/12 52/73/11
f 36/50/10 35/72/11 52/73/11 53/51/10
f 24/74/8 23/75/7 25/34/7 46/76/8
f 26/77/12 24/74/8 46/76/8 47/78/12
f 27/79/11 26/77/12 47/78/12 48/80/11
f 28/42/10 27/79/11 48/80/11 49/43/10
f 54/81/13 55/82/13 56/83/13 57/84/13
f 55/82/6 54/81/6 58/85/6 59/86/6
f 56/83/4 55/82/4 59/86/4 60/87/4
f 57/84/14 56/83/14 60/87/14 61/88/14
f 54/81/2 57/84/2 61/88/2 58/85/2
f 58/85/15 61/88/15 60/87/15 59/86/15
f 62/89/13 63/90/13 64/91/13 65/92/13
f 63/90/6 62/89/6 66/93/6 67/94/6
f 64/91/4 63/90/4 67/94/4 68/95/4
f 65/92/14 64/91/14 68/95/14 69/96/14
f 62/89/2 65/92/2 69/96/2 66/93/2
f 66/93/15 69/96/15 68/95/15 67/94/15
f 25/34/6 23/75/6 4/49/6 37/48/6 9/60/6 10/59/6 3/39/6 22/35/6
f 72/97/4 70/98/4 71/99/4 73/100/4
f 76/101/2 74/102/2 75/103/2 77/104/2
f 78/105/4 79/106/4 80/107/4 81/108/4
f 82/109/2 83/110/2 84/111/2 85/112/2
f 86/113/4 87/114/4 88/115/4 89/116/4
f 90/117/2 93/118/2 92/119/2 91/120/2
f 37/48/6 33/68/6 31/67/6 5/121/6 6/122/6 15/45/6 16/44/6 9/60/6
f 94/123/13 95/124/13 96/125/13 97/126/13
f 95/124/2 94/123/2 98/127/2 99/128/2
f 96/125/6 95/124/6 99/128/6 100/129/6
f 97/126/4 96/125/4 100/129/4 101/130/4
f 94/123/14 97/126/14 101/130/14 98/127/14
f 98/131/15 101/132/15 100/133/15 99/134/15
f 102/135/13 103/136/13 104/137/13 105/138/13
f 103/136/2 102/135/2 106/139/2 107/140/2
f 104/137/6 103/136/6 107/140/6 108/141/6
f 105/138/4 104/137/4 108/141/4 109/142/4
f 102/135/14 105/138/14 109/142/14 106/139/14
f 106/143/15 109/144/15 108/145/15 107/146/15
f 115/147/16 116/148/16 112/149/14 111/150/14
f 111/150/14 112/149/14 114/151/17 113/152/17
f 122/153/18 112/154/19 116/155/20
f 117/156/19 118/157/21 112/154/19
f 119/158/22 111/159/23 113/160/22
f 120/161/23 121/162/24 111/159/23
f 114/163/25 118/164/25 119/165/25 113/166/25
f 115/167/26 121/168/26 122/169/26 116/170/26
f 122/171/27 121/172/27 123/173/27 124/10/27
f 35/23/4 36/174/4 120/28/4 119/24/4
f 36/174/4 4/175/4 23/26/4 120/28/4
f 12/176/2 13/177/2 14/178/2 15/179/2 6/180/2 7/30/2 118/29/2
f 11/13/2 12/176/2 118/29/2 117/14/2
f 125/181/4 126/182/4 127/183/4 128/184/4
f 129/185/2 130/186/2 131/187/2 132/188/2
f 122/153/18 117/156/19 112/154/19
f 121/162/24 115/189/28 111/159/23
f 118/157/21 114/190/21 112/154/19
f 119/158/22 120/161/23 111/159/23
f 27/191/4 28/192/4 29/193/4 1/194/4 123/195/4 121/196/4
f 26/197/4 27/191/4 121/196/4
f 21/198/2 117/14/2 122/9/2
f 20/8/2 21/198/2 122/9/2
f 21/198/2 110/199/2 117/14/2
f 26/197/4 121/196/4 120/28/4
f 24/27/4 26/197/4 120/28/4
f 110/199/2 3/11/2 117/14/2
f 142/200/4 141/201/4 140/202/4 139/203/4 138/204/4 137/205/4 136/206/4 135/207/4 134/208/4 133/209/4
f 133/209/13 134/208/29 144/210/29 143/211/13
f 134/208/29 135/207/30 145/212/30 144/210/29
f 135/207/30 136/206/31 146/213/31 145/212/30
f 136/206/31 137/205/32 147/214/32 146/213/31
f 137/205/32 138/204/15 148/215/15 147/214/32
f 138/204/15 139/203/8 149/216/8 148/215/15
f 139/203/8 140/202/12 150/217/12 149/216/8
f 140/202/12 141/201/11 151/218/11 150/217/12
f 141/201/11 142/200/10 152/219/10 151/218/11
f 142/200/10 133/209/13 143/211/13 152/219/10
f 152/220/2 143/221/2 144/222/2 145/223/2 146/224/2 147/225/2 148/226/2 149/227/2 150/228/2 151/229/2
f 162/230/4 161/231/4 160/232/4 159/233/4 158/234/4 157/235/4 156/236/4 155/237/4 154/238/4 153/239/4
f 153/239/13 154/238/29 164/240/29 163/241/13
f 154/238/29 155/237/30 165/242/30 164/240/29
f 155/237/30 156/236/31 166/243/31 165/242/30
f 156/236/31 157/235/32 167/244/32 166/243/31
f 157/235/32 158/234/15 168/245/15 167/244/32
f 158/234/15 159/233/8 169/246/8 168/245/15
f 159/233/8 160/232/12 170/247/12 169/246/8
f 160/232/12 161/231/11 171/248/11 170/247/12
f 161/231/11 162/230/10 172/249/10 171/248/11
f 162/230/10 153/239/13 163/241/13 172/249/10
f 172/250/2 163/251/2 164/252/2 165/253/2 166/254/2 167/255/2 168/256/2 169/257/2 170/258/2 171/259/2
f 182/260/2 181/261/2 180/262/2 179/263/2 178/264/2 177/265/2 176/266/2 175/267/2 174/268/2 173/269/2
f 173/269/15 174/268/32 184/270/32 183/271/15
f 174/268/32 175/267/31 185/272/31 184/270/32
f 175/267/31 176/266/30 186/273/30 185/272/31
f 176/266/30 177/265/29 187/274/29 186/273/30
f 177/265/29 178/264/13 188/275/13 187/274/29
f 178/264/13 179/263/10 189/276/10 188/275/13
f 179/263/10 180/262/11 190/277/11 189/276/10
f 180/262/11 181/261/12 191/278/12 190/277/11
f 181/261/12 182/260/8 192/279/8 191/278/12
f 182/260/8 173/269/15 183/271/15 192/279/8
f 192/280/4 183/281/4 184/282/4 185/283/4 186/284/4 187/285/4 188/286/4 189/287/4 190/288/4 191/289/4
f 202/290/2 201/291/2 200/292/2 199/293/2 198/294/2 197/295/2 196/296/2 195/297/2 194/298/2 193/299/2
f 193/299/15 194/298/32 204/300/32 203/301/15
f 194/298/32 195/297/31 205/302/31 204/300/32
f 195/297/31 196/296/30 206/303/30 205/302/31
f 196/296/30 197/295/29 207/304/29 206/303/30
f 197/295/29 198/294/13 208/305/13 207/304/29
f 198/294/13 199/293/10 209/306/10 208/305/13
f 199/293/10 200/292/11 210/307/11 209/306/10
f 200/292/11 201/291/12 211/308/12 210/307/11
f 201/291/12 202/290/8 212/309/8 211/308/12
f 202/290/8 193/299/15 203/301/15 212/309/8
f 212/310/4 203/311/4 204/312/4 205/313/4 206/314/4 207/315/4 208/316/4 209/317/4 210/318/4 211/319/4
