# Blender v2.79 (sub 0) OBJ File: 'FlatRoad2.blend'
# www.blender.org
mtllib FlatRoad2.mtl
o Cube_Cube.001
v 0.622696 -0.000091 0.209076
v 0.622696 0.045727 0.209076
v -0.522135 -0.000091 0.209076
v -0.522135 0.045727 0.209076
v 0.622696 -0.000091 -0.209076
v 0.622696 0.045727 -0.209076
v -0.522135 -0.000091 -0.209076
v -0.522135 0.045727 -0.209076
v -0.522135 -0.000091 -0.176130
v -0.522135 -0.000091 0.176131
v -0.522135 0.045727 0.176131
v -0.522135 0.045727 -0.176130
v 0.622696 -0.000091 0.176130
v 0.622696 -0.000091 -0.176131
v 0.622696 0.045727 -0.176131
v 0.622696 0.045727 0.176130
v 0.622696 0.073758 0.209076
v -0.522135 0.073758 0.209076
v -0.522135 0.073758 -0.197288
v -0.522135 0.073758 -0.209076
v 0.622696 0.073758 -0.209076
v 0.622696 0.073758 0.197288
v -0.522135 0.073758 0.197288
v 0.622696 0.073758 -0.197288
v -0.522135 -0.000091 -0.014048
v -0.522135 -0.000091 0.014048
v -0.522135 0.045727 0.014048
v -0.522135 0.045727 -0.014048
v 0.622696 -0.000091 0.014048
v 0.622696 -0.000091 -0.014048
v 0.622696 0.045727 -0.014048
v 0.622696 0.045727 0.014048
v -0.362862 -0.000091 0.209076
v -0.230689 -0.000091 0.209076
v -0.021161 -0.000091 0.209076
v 0.096999 -0.000091 0.209076
v 0.339114 -0.000091 0.209076
v 0.468908 -0.000091 0.209076
v 0.468908 0.045727 0.209076
v 0.339114 0.045727 0.209076
v 0.096999 0.045727 0.209076
v -0.021161 0.045727 0.209076
v -0.230689 0.045727 0.209076
v -0.362862 0.045727 0.209076
v 0.468908 -0.000091 -0.209076
v 0.339114 -0.000091 -0.209076
v 0.096999 -0.000091 -0.209076
v -0.021161 -0.000091 -0.209076
v -0.230689 -0.000091 -0.209076
v -0.362862 -0.000091 -0.209076
v -0.362862 0.045727 -0.209076
v -0.230689 0.045727 -0.209076
v -0.021161 0.045727 -0.209076
v 0.096999 0.045727 -0.209076
v 0.339114 0.045727 -0.209076
v 0.468908 0.045727 -0.209076
v -0.362862 0.045727 -0.176130
v -0.230689 0.045727 -0.176130
v -0.021161 0.045727 -0.176131
v 0.096999 0.045727 -0.176131
v 0.339114 0.045727 -0.176131
v 0.468908 0.045727 -0.176131
v -0.362862 0.045727 0.176131
v -0.230689 0.045727 0.176131
v -0.021161 0.045727 0.176131
v 0.096999 0.045727 0.176131
v 0.339114 0.045727 0.176130
v 0.468908 0.045727 0.176130
v -0.362862 -0.000091 0.176131
v -0.230689 -0.000091 0.176131
v -0.021161 -0.000091 0.176131
v 0.096999 -0.000091 0.176131
v 0.339114 -0.000091 0.176130
v 0.468908 -0.000091 0.176130
v -0.362862 -0.000091 -0.176130
v -0.230689 -0.000091 -0.176130
v -0.021161 -0.000091 -0.176131
v 0.096999 -0.000091 -0.176131
v 0.339114 -0.000091 -0.176131
v 0.468908 -0.000091 -0.176131
v 0.468908 0.073758 0.209076
v 0.339114 0.073758 0.209076
v 0.096999 0.073758 0.209076
v -0.021161 0.073758 0.209076
v -0.230689 0.073758 0.209076
v -0.362862 0.073758 0.209076
v -0.362862 0.073758 -0.209076
v -0.230689 0.073758 -0.209076
v -0.021161 0.073758 -0.209076
v 0.096999 0.073758 -0.209076
v 0.339114 0.073758 -0.209076
v 0.468908 0.073758 -0.209076
v -0.362862 0.073758 -0.197288
v -0.230689 0.073758 -0.197288
v -0.021161 0.073758 -0.197288
v 0.096999 0.073758 -0.197288
v 0.339114 0.073758 -0.197288
v 0.468908 0.073758 -0.197288
v -0.362862 0.073758 0.197288
v -0.230689 0.073758 0.197288
v -0.021161 0.073758 0.197288
v 0.096999 0.073758 0.197288
v 0.339114 0.073758 0.197288
v 0.468908 0.073758 0.197288
v -0.362862 -0.000091 0.014048
v -0.230689 -0.000091 0.014048
v -0.021161 -0.000091 0.014048
v 0.096999 -0.000091 0.014048
v 0.339114 -0.000091 0.014048
v 0.468908 -0.000091 0.014048
v -0.362862 -0.000091 -0.014048
v -0.230689 -0.000091 -0.014048
v -0.021161 -0.000091 -0.014048
v 0.096999 -0.000091 -0.014048
v 0.339114 -0.000091 -0.014048
v 0.468908 -0.000091 -0.014048
v -0.362862 0.045727 -0.014048
v -0.230689 0.045727 -0.014048
v -0.021161 0.045727 -0.014048
v 0.096999 0.045727 -0.014048
v 0.339114 0.045727 -0.014048
v 0.468908 0.045727 -0.014048
v -0.362862 0.045727 0.014048
v -0.230689 0.045727 0.014048
v -0.021161 0.045727 0.014048
v 0.096999 0.045727 0.014048
v 0.339114 0.045727 0.014048
v 0.468908 0.045727 0.014048
vt 0.189875 0.174665
vt 0.189982 0.175003
vt 0.191789 0.177268
vt 0.191722 0.176577
vt 0.156926 0.744149
vt 0.158034 0.742768
vt 0.159711 0.745454
vt 0.157879 0.744970
vt 0.140625 0.171885
vt 0.140501 0.171492
vt 0.139473 0.169636
vt 0.139550 0.170337
vt 0.135834 0.739572
vt 0.134516 0.740396
vt 0.133721 0.737582
vt 0.135203 0.738652
vt 0.140353 0.741837
vt 0.140368 0.741516
vt 0.140109 0.741143
vt 0.140069 0.741239
vt 0.123354 0.901104
vt 0.124149 0.903917
vt 0.120396 0.902834
vt 0.121630 0.901184
vt 0.082471 0.836256
vt 0.070105 0.833313
vt 0.062962 0.833646
vt 0.081710 0.841406
vt 0.135374 0.168339
vt 0.126927 0.177557
vt 0.116368 0.167241
vt 0.133566 0.166263
vt 0.137188 0.738405
vt 0.137805 0.738080
vt 0.138414 0.166651
vt 0.140560 0.173213
vt 0.139383 0.170734
vt 0.135781 0.168318
vt 0.140091 0.740974
vt 0.140058 0.740718
vt 0.134148 0.168851
vt 0.121830 0.163827
vt 0.152697 0.742648
vt 0.152713 0.742815
vt 0.152747 0.743102
vt 0.152740 0.742508
vt 0.197258 0.177490
vt 0.197809 0.180506
vt 0.213841 0.177074
vt 0.209250 0.182795
vt 0.136515 0.742398
vt 0.136521 0.739535
vt 0.131998 0.737662
vt 0.130763 0.739312
vt 0.140307 0.741067
vt 0.140293 0.740438
vt 0.140060 0.740821
vt 0.140073 0.740922
vt 0.097329 0.843979
vt 0.096368 0.846309
vt 0.096378 0.846739
vt 0.097341 0.845152
vt 0.129690 0.904239
vt 0.129723 0.904495
vt 0.129706 0.904443
vt 0.129693 0.904343
vt 0.149344 0.908976
vt 0.147667 0.906290
vt 0.150627 0.905772
vt 0.152941 0.908274
vt 0.142380 0.906623
vt 0.142346 0.906337
vt 0.142364 0.906385
vt 0.142377 0.906513
vt 0.147244 0.858539
vt 0.148961 0.856190
vt 0.148950 0.855733
vt 0.147203 0.857342
vt 0.160013 0.866620
vt 0.177823 0.865941
vt 0.192733 0.863030
vt 0.160475 0.861810
vt 0.191901 0.175994
vt 0.191930 0.178455
vt 0.195667 0.178325
vt 0.195364 0.178506
vt 0.139337 0.168575
vt 0.135440 0.168118
vt 0.129999 0.157643
vt 0.136565 0.168694
vt 0.140298 0.166245
vt 0.137441 0.171203
vt 0.192659 0.174692
vt 0.194557 0.177617
vt 0.216807 0.540352
vt 0.216807 0.552754
vt 0.127752 0.552754
vt 0.127752 0.540352
vt 0.182784 0.176438
vt 0.182190 0.171793
vt 0.172969 0.167138
vt 0.173376 0.179965
vt 0.231623 0.527929
vt 0.231623 0.540331
vt 0.127752 0.540331
vt 0.127752 0.527929
vt 0.155479 0.179692
vt 0.154989 0.167138
vt 0.146361 0.170482
vt 0.147060 0.174816
vt 0.214630 0.552775
vt 0.214630 0.565178
vt 0.127752 0.565178
vt 0.127752 0.552775
vt 0.201335 0.167406
vt 0.183902 0.163820
vt 0.173395 0.164854
vt 0.156249 0.165140
vt 0.148473 0.165549
vt 0.193602 0.178472
vt 0.191817 0.180698
vt 0.181867 0.176085
vt 0.181156 0.179448
vt 0.172428 0.173312
vt 0.171995 0.177544
vt 0.156566 0.169038
vt 0.156088 0.173137
vt 0.148226 0.167522
vt 0.147441 0.170580
vt 0.189969 0.173283
vt 0.180812 0.168628
vt 0.172266 0.164276
vt 0.155689 0.159715
vt 0.146056 0.157929
vt 0.096504 0.847370
vt 0.097532 0.849226
vt 0.097401 0.847757
vt 0.096433 0.847154
vt 0.105963 0.852555
vt 0.105865 0.849828
vt 0.112995 0.855474
vt 0.112973 0.851747
vt 0.130378 0.858966
vt 0.130495 0.854063
vt 0.140241 0.860637
vt 0.140396 0.855016
vt 0.073400 0.844975
vt 0.083958 0.855292
vt 0.081683 0.853273
vt 0.057846 0.840484
vt 0.101807 0.860648
vt 0.102094 0.856543
vt 0.111843 0.859876
vt 0.111689 0.856216
vt 0.129299 0.859873
vt 0.129473 0.857147
vt 0.138034 0.859650
vt 0.137822 0.857563
vt 0.170873 0.854809
vt 0.158366 0.845140
vt 0.160028 0.849069
vt 0.183144 0.852663
vt 0.140933 0.841554
vt 0.140681 0.845868
vt 0.130426 0.842589
vt 0.130534 0.846189
vt 0.113280 0.842875
vt 0.113094 0.845397
vt 0.105504 0.843283
vt 0.105748 0.845150
vt 0.163308 0.744752
vt 0.160995 0.742251
vt 0.155418 0.741383
vt 0.155525 0.744458
vt 0.150749 0.740611
vt 0.150681 0.742818
vt 0.148301 0.740689
vt 0.148292 0.742588
vt 0.144093 0.740497
vt 0.144064 0.742030
vt 0.142321 0.740438
vt 0.142349 0.741567
vt 0.152745 0.742991
vt 0.152731 0.742864
vt 0.152306 0.742664
vt 0.152323 0.743380
vt 0.150036 0.742197
vt 0.150060 0.743433
vt 0.148076 0.741712
vt 0.148045 0.743333
vt 0.143761 0.741184
vt 0.143754 0.743108
vt 0.141518 0.740974
vt 0.141439 0.743187
vt 0.199194 0.190439
vt 0.182877 0.189268
vt 0.172621 0.186954
vt 0.156322 0.181872
vt 0.148729 0.177539
vt 0.152274 0.741854
vt 0.152252 0.742187
vt 0.150065 0.740730
vt 0.150009 0.741280
vt 0.148003 0.739680
vt 0.148037 0.740471
vt 0.144003 0.738580
vt 0.143863 0.739532
vt 0.141679 0.738149
vt 0.141614 0.739189
vt 0.190213 0.180805
vt 0.181002 0.181915
vt 0.172267 0.182139
vt 0.154811 0.182141
vt 0.144776 0.182913
vt 0.148821 0.855003
vt 0.147013 0.852738
vt 0.147134 0.854377
vt 0.148895 0.855203
vt 0.137643 0.849435
vt 0.137725 0.852439
vt 0.129593 0.846459
vt 0.129599 0.850432
vt 0.111847 0.843259
vt 0.111715 0.848242
vt 0.102625 0.841817
vt 0.102420 0.847370
vt 0.155023 0.745482
vt 0.154500 0.745993
vt 0.150614 0.744647
vt 0.150563 0.745710
vt 0.148208 0.744207
vt 0.148088 0.745152
vt 0.144114 0.743184
vt 0.144156 0.743926
vt 0.142382 0.742392
vt 0.142324 0.742881
vt 0.213198 0.186200
vt 0.220791 0.188207
vt 0.202982 0.188886
vt 0.201364 0.188319
vt 0.183209 0.182903
vt 0.183087 0.184862
vt 0.173347 0.181232
vt 0.173115 0.183038
vt 0.155964 0.177740
vt 0.156148 0.178799
vt 0.148932 0.174821
vt 0.148968 0.175515
vt 0.119215 0.160014
vt 0.113074 0.155578
vt 0.125439 0.158521
vt 0.127444 0.158991
vt 0.145593 0.164082
vt 0.145786 0.162237
vt 0.154816 0.165524
vt 0.155107 0.163659
vt 0.172562 0.168725
vt 0.172407 0.167553
vt 0.180612 0.171701
vt 0.180583 0.170905
vn 0.0000 0.0000 1.0000
vn -1.0000 0.0000 0.0000
vn -0.0000 0.0000 -1.0000
vn 1.0000 0.0000 0.0000
vn 0.0000 -1.0000 0.0000
vn 0.0000 1.0000 0.0000
vn 0.0000 0.6025 0.7982
vn -0.0000 0.6025 -0.7982
usemtl Material.001
s off
f 33/1/1 44/2/1 4/3/1 3/4/1
f 9/5/2 12/6/2 8/7/2 7/8/2
f 45/9/3 56/10/3 6/11/3 5/12/3
f 13/13/4 16/14/4 2/15/4 1/16/4
f 80/17/5 45/18/5 5/19/5 14/20/5
f 2/21/4 16/22/4 22/23/4 17/24/4
f 39/25/1 2/26/1 17/27/1 81/28/1
f 128/29/6 68/30/6 16/31/6 32/32/6
f 38/33/5 74/34/5 13/13/5 1/16/5
f 116/35/5 80/36/5 14/37/5 30/38/5
f 5/19/4 6/39/4 15/40/4 14/20/4
f 29/41/4 32/32/4 16/31/4 13/42/4
f 3/43/2 4/44/2 11/45/2 10/46/2
f 25/47/2 28/48/2 12/49/2 9/50/2
f 104/51/6 81/52/6 17/53/6 22/54/6
f 92/55/6 98/56/6 24/57/6 21/58/6
f 62/59/7 15/60/7 24/61/7 98/62/7
f 15/63/4 6/64/4 21/65/4 24/66/4
f 8/67/2 12/68/2 19/69/2 20/70/2
f 11/71/2 4/72/2 18/73/2 23/74/2
f 63/75/8 11/76/8 23/77/8 99/78/8
f 51/79/3 8/80/3 20/81/3 87/82/3
f 10/83/2 11/84/2 27/85/2 26/86/2
f 26/86/2 27/85/2 28/48/2 25/47/2
f 14/37/4 15/87/4 31/88/4 30/38/4
f 30/38/4 31/88/4 32/32/4 29/41/4
f 74/89/5 110/90/5 29/41/5 13/42/5
f 110/90/5 116/35/5 30/38/5 29/41/5
f 62/91/6 122/92/6 31/88/6 15/87/6
f 122/92/6 128/29/6 32/32/6 31/88/6
f 28/48/6 27/85/6 123/93/6 117/94/6
f 117/95/6 123/96/6 124/97/6 118/98/6
f 118/99/6 124/100/6 125/101/6 119/102/6
f 119/103/6 125/104/6 126/105/6 120/106/6
f 120/107/6 126/108/6 127/109/6 121/110/6
f 121/111/6 127/112/6 128/113/6 122/114/6
f 12/49/6 28/48/6 117/94/6 57/115/6
f 57/115/6 117/94/6 118/99/6 58/116/6
f 58/116/6 118/99/6 119/102/6 59/117/6
f 59/117/6 119/102/6 120/107/6 60/118/6
f 60/118/6 120/107/6 121/110/6 61/119/6
f 61/119/6 121/110/6 122/92/6 62/91/6
f 26/86/5 25/47/5 111/120/5 105/121/5
f 105/121/5 111/120/5 112/122/5 106/123/5
f 106/123/5 112/122/5 113/124/5 107/125/5
f 107/125/5 113/124/5 114/126/5 108/127/5
f 108/127/5 114/126/5 115/128/5 109/129/5
f 109/129/5 115/128/5 116/35/5 110/90/5
f 10/83/5 26/86/5 105/121/5 69/130/5
f 69/130/5 105/121/5 106/123/5 70/131/5
f 70/131/5 106/123/5 107/125/5 71/132/5
f 71/132/5 107/125/5 108/127/5 72/133/5
f 72/133/5 108/127/5 109/129/5 73/134/5
f 73/134/5 109/129/5 110/90/5 74/89/5
f 6/135/3 56/136/3 92/137/3 21/138/3
f 56/136/3 55/139/3 91/140/3 92/137/3
f 55/139/3 54/141/3 90/142/3 91/140/3
f 54/141/3 53/143/3 89/144/3 90/142/3
f 53/143/3 52/145/3 88/146/3 89/144/3
f 52/145/3 51/79/3 87/82/3 88/146/3
f 16/147/8 68/148/8 104/149/8 22/150/8
f 68/148/8 67/151/8 103/152/8 104/149/8
f 67/151/8 66/153/8 102/154/8 103/152/8
f 66/153/8 65/155/8 101/156/8 102/154/8
f 65/155/8 64/157/8 100/158/8 101/156/8
f 64/157/8 63/75/8 99/78/8 100/158/8
f 12/159/7 57/160/7 93/161/7 19/162/7
f 57/160/7 58/163/7 94/164/7 93/161/7
f 58/163/7 59/165/7 95/166/7 94/164/7
f 59/165/7 60/167/7 96/168/7 95/166/7
f 60/167/7 61/169/7 97/170/7 96/168/7
f 61/169/7 62/59/7 98/62/7 97/170/7
f 20/171/6 19/172/6 93/173/6 87/174/6
f 87/174/6 93/173/6 94/175/6 88/176/6
f 88/176/6 94/175/6 95/177/6 89/178/6
f 89/178/6 95/177/6 96/179/6 90/180/6
f 90/180/6 96/179/6 97/181/6 91/182/6
f 91/182/6 97/181/6 98/56/6 92/55/6
f 23/183/6 18/184/6 86/185/6 99/186/6
f 99/186/6 86/185/6 85/187/6 100/188/6
f 100/188/6 85/187/6 84/189/6 101/190/6
f 101/190/6 84/189/6 83/191/6 102/192/6
f 102/192/6 83/191/6 82/193/6 103/194/6
f 103/194/6 82/193/6 81/52/6 104/51/6
f 25/47/5 9/50/5 75/195/5 111/120/5
f 111/120/5 75/195/5 76/196/5 112/122/5
f 112/122/5 76/196/5 77/197/5 113/124/5
f 113/124/5 77/197/5 78/198/5 114/126/5
f 114/126/5 78/198/5 79/199/5 115/128/5
f 115/128/5 79/199/5 80/36/5 116/35/5
f 3/43/5 10/46/5 69/200/5 33/201/5
f 33/201/5 69/200/5 70/202/5 34/203/5
f 34/203/5 70/202/5 71/204/5 35/205/5
f 35/205/5 71/204/5 72/206/5 36/207/5
f 36/207/5 72/206/5 73/208/5 37/209/5
f 37/209/5 73/208/5 74/34/5 38/33/5
f 27/85/6 11/84/6 63/210/6 123/93/6
f 123/93/6 63/210/6 64/211/6 124/100/6
f 124/100/6 64/211/6 65/212/6 125/101/6
f 125/101/6 65/212/6 66/213/6 126/108/6
f 126/108/6 66/213/6 67/214/6 127/109/6
f 127/109/6 67/214/6 68/30/6 128/29/6
f 4/215/1 44/216/1 86/217/1 18/218/1
f 44/216/1 43/219/1 85/220/1 86/217/1
f 43/219/1 42/221/1 84/222/1 85/220/1
f 42/221/1 41/223/1 83/224/1 84/222/1
f 41/223/1 40/225/1 82/226/1 83/224/1
f 40/225/1 39/25/1 81/28/1 82/226/1
f 9/5/5 7/8/5 50/227/5 75/228/5
f 75/228/5 50/227/5 49/229/5 76/230/5
f 76/230/5 49/229/5 48/231/5 77/232/5
f 77/232/5 48/231/5 47/233/5 78/234/5
f 78/234/5 47/233/5 46/235/5 79/236/5
f 79/236/5 46/235/5 45/18/5 80/17/5
f 7/237/3 8/238/3 51/239/3 50/240/3
f 50/240/3 51/239/3 52/241/3 49/242/3
f 49/242/3 52/241/3 53/243/3 48/244/3
f 48/244/3 53/243/3 54/245/3 47/246/3
f 47/246/3 54/245/3 55/247/3 46/248/3
f 46/248/3 55/247/3 56/10/3 45/9/3
f 1/249/1 2/250/1 39/251/1 38/252/1
f 38/252/1 39/251/1 40/253/1 37/254/1
f 37/254/1 40/253/1 41/255/1 36/256/1
f 36/256/1 41/255/1 42/257/1 35/258/1
f 35/258/1 42/257/1 43/259/1 34/260/1
f 34/260/1 43/259/1 44/2/1 33/1/1
